<?xml version="1.0" encoding="iso-8859-1"?>
<!-- Generator: Adobe Illustrator 19.0.0, SVG Export Plug-In . SVG Version: 6.00 Build 0)  -->
<svg version="1.1" id="Capa_1" xmlns="http://www.w3.org/2000/svg" xmlns:xlink="http://www.w3.org/1999/xlink" x="0px" y="0px"
	 viewBox="0 0 480.061 480.061" style="enable-background:new 0 0 480.061 480.061;" xml:space="preserve">
<g>
	<g>
		<path d="M436.381,3.446c-3.409-2.812-8.452-2.329-11.264,1.08c-2.812,3.409-2.329,8.452,1.08,11.264
			c23.973,19.758,37.859,49.198,37.856,80.264c-0.005,57.438-46.571,103.996-104.008,103.992h-280c-4.418,0-8,3.582-8,8s3.582,8,8,8
			h280c35.845,0.004,69.815-16.017,92.613-43.677C494.81,121.227,487.523,45.598,436.381,3.446z"/>
	</g>
</g>
<g>
	<g>
		<path d="M434.029,48.446c-0.028-0.044-0.056-0.087-0.084-0.13c-2.433-3.688-7.395-4.706-11.083-2.273s-4.706,7.395-2.273,11.083
			c7.454,11.602,11.42,25.1,11.426,38.89c0.017,39.765-32.205,72.014-71.97,72.03h-232c-4.418,0-8,3.582-8,8s3.582,8,8,8h232
			c16.869-0.006,33.381-4.86,47.569-13.985C448.492,143.772,460.318,89.323,434.029,48.446z"/>
	</g>
</g>
<g>
	<g>
		<path d="M472.045,232.046h-381.8c-17.69-0.461-35.108,4.426-49.977,14.021c-40.81,26.336-52.544,80.769-26.207,121.579
			c1.474,2.286,4.008,3.666,6.728,3.664c1.539-0.001,3.046-0.446,4.338-1.282c3.71-2.399,4.773-7.352,2.374-11.062
			c-7.921-12.279-11.916-26.68-11.453-41.285c1.26-39.718,34.479-70.895,74.197-69.635h381.8c4.418,0,8-3.582,8-8
			S476.464,232.046,472.045,232.046z"/>
	</g>
</g>
<g>
	<g>
		<path d="M408.045,88.046c-4.418,0-8,3.582-8,8c-0.026,22.08-17.92,39.974-40,40h-104c-4.418,0-8,3.582-8,8s3.582,8,8,8h104
			c30.913-0.035,55.965-25.087,56-56C416.045,91.627,412.464,88.046,408.045,88.046z"/>
	</g>
</g>
<g>
	<g>
		<path d="M352.045,56.046c-17.673,0-32,14.327-32,32s14.327,32,32,32c4.418,0,8-3.582,8-8s-3.582-8-8-8c-8.837,0-16-7.163-16-16
			s7.163-16,16-16s16,7.163,16,16c0,4.418,3.582,8,8,8s8-3.582,8-8C384.045,70.372,369.719,56.046,352.045,56.046z"/>
	</g>
</g>
<g>
	<g>
		<path d="M240.045,264.046h-160c-4.418,0-8,3.582-8,8s3.582,8,8,8h160c31.043,0.006,60.46,13.879,80.211,37.827
			c36.546,44.311,30.252,109.859-14.059,146.405c-1.84,1.52-2.906,3.782-2.905,6.169c0.001,4.418,3.583,7.999,8.001,7.999
			c1.853,0.008,3.652-0.629,5.088-1.8c27.66-22.798,43.681-56.768,43.677-92.613C360.051,317.759,306.32,264.038,240.045,264.046z"
			/>
	</g>
</g>
<g>
	<g>
		<path d="M240.045,296.046h-48c-4.418,0-8,3.582-8,8s3.582,8,8,8h48c13.79,0.006,27.288,3.972,38.89,11.426
			c33.454,21.495,43.149,66.04,21.654,99.494c-0.836,1.293-1.281,2.799-1.282,4.338c-0.003,4.418,3.576,8.003,7.994,8.006
			c2.72,0.002,5.254-1.378,6.728-3.664c9.125-14.188,13.979-30.7,13.985-47.569C328.031,335.476,288.646,296.063,240.045,296.046z"
			/>
	</g>
</g>
<g>
	<g>
		<path d="M240.045,328.046h-48c-4.418,0-8,3.582-8,8s3.582,8,8,8h48c22.08,0.026,39.974,17.92,40,40c0,4.418,3.582,8,8,8
			s8-3.582,8-8C296.01,353.132,270.959,328.081,240.045,328.046z"/>
	</g>
</g>
<g>
	<g>
		<path d="M256.045,384.046c-4.418,0-8,3.582-8,8c0,8.837-7.163,16-16,16s-16-7.163-16-16s7.163-16,16-16c4.418,0,8-3.582,8-8
			s-3.582-8-8-8c-17.673,0-32,14.327-32,32c0,17.673,14.327,32,32,32c17.673,0,32-14.327,32-32
			C264.045,387.627,260.464,384.046,256.045,384.046z"/>
	</g>
</g>
<g>
	<g>
		<path d="M224.045,136.046h-32c-4.418,0-8,3.582-8,8s3.582,8,8,8h32c4.418,0,8-3.582,8-8S228.464,136.046,224.045,136.046z"/>
	</g>
</g>
<g>
	<g>
		<path d="M160.045,296.046h-32c-4.418,0-8,3.582-8,8s3.582,8,8,8h32c4.418,0,8-3.582,8-8S164.464,296.046,160.045,296.046z"/>
	</g>
</g>
<g>
</g>
<g>
</g>
<g>
</g>
<g>
</g>
<g>
</g>
<g>
</g>
<g>
</g>
<g>
</g>
<g>
</g>
<g>
</g>
<g>
</g>
<g>
</g>
<g>
</g>
<g>
</g>
<g>
</g>
</svg>
