<?xml version="1.0" encoding="iso-8859-1"?>
<!-- Generator: Adobe Illustrator 19.0.0, SVG Export Plug-In . SVG Version: 6.00 Build 0)  -->
<svg version="1.1" id="Capa_1" xmlns="http://www.w3.org/2000/svg" xmlns:xlink="http://www.w3.org/1999/xlink" x="0px" y="0px"
	 viewBox="0 0 479.976 479.976" style="enable-background:new 0 0 479.976 479.976;" xml:space="preserve">
<g>
	<g>
		<path d="M248.076,32.208V8c0-4.418-3.582-8-8-8s-8,3.582-8,8v24.2C124.578,36.46,39.71,124.994,39.996,232.576v0.112
			c0,4.418,3.582,8,8,8s8-3.582,8-8c-0.053-22.082,17.782-40.039,39.864-40.136h0.144c22.026,0.022,39.899,17.83,40,39.856
			c0,4.418,3.582,8,8,8c1.07-0.001,2.128-0.219,3.112-0.64c0.234-0.137,0.458-0.289,0.672-0.456c1.492-0.947,2.72-2.258,3.568-3.808
			c0.128-0.442,0.219-0.895,0.272-1.352c0.182-0.566,0.3-1.151,0.352-1.744c-0.075-22.091,17.772-40.061,39.864-40.136c0,0,0,0,0,0
			h0.136c2.671,0.001,5.335,0.269,7.952,0.8c0.632,0.128,1.224,0.4,1.84,0.552c1.923,0.445,3.811,1.03,5.648,1.752
			c0.68,0.288,1.296,0.72,1.96,1.048c1.656,0.765,3.259,1.639,4.8,2.616c1.187,0.87,2.328,1.802,3.416,2.792
			c0.848,0.712,1.776,1.328,2.56,2.112c1.824,1.814,3.469,3.799,4.912,5.928c1.076,1.659,2.026,3.398,2.84,5.2
			c0.264,0.544,0.624,1.04,0.864,1.6c0.751,1.879,1.358,3.813,1.816,5.784c0.144,0.576,0.408,1.12,0.528,1.712
			c0.533,2.633,0.801,5.313,0.8,8l0.656,192c0.106,30.853,25.147,55.808,56,55.808h0.304c30.913-0.141,55.879-25.279,55.808-56.192
			l-0.056-16c0-4.418-3.582-8-8-8s-8,3.582-8,8l0.056,16c0.036,22.075-17.789,40.021-39.864,40.136
			c-22.091,0.093-40.075-17.74-40.168-39.832c0-0.029,0-0.059,0-0.088l-0.656-192c-0.058-22.086,17.779-40.047,39.864-40.144
			c0.464,0,0.896,0.112,1.352,0.12c10.12,0.258,19.758,4.373,26.944,11.504c0.32,0.32,0.552,0.704,0.856,1.032
			c3.237,3.281,5.822,7.147,7.616,11.392c0,0.08,0.096,0.16,0.128,0.24c0.924,2.202,1.647,4.483,2.16,6.816
			c0.064,0.248,0.176,0.48,0.232,0.736c0.553,2.631,0.837,5.311,0.848,8c0,4.418,3.582,8,8,8c1.069-0.005,2.127-0.223,3.112-0.64
			c0.234-0.137,0.458-0.289,0.672-0.456c1.492-0.947,2.72-2.258,3.568-3.808c0.128-0.442,0.219-0.895,0.272-1.352
			c0.182-0.566,0.3-1.151,0.352-1.744c-0.058-22.086,17.779-40.047,39.864-40.144h0.144c22.029,0.022,39.903,17.835,40,39.864
			c0,4.418,3.582,8,8,8s8-3.582,8-8C439.538,124.395,355.006,36.646,248.076,32.208z M137.612,195.2
			c-0.736-0.8-1.392-1.656-2.168-2.4c-10.458-10.457-24.651-16.315-39.44-16.28h-0.2c-12.628,0.03-24.872,4.345-34.728,12.24
			c15.716-64.791,65.251-116.012,129.48-133.888C162.98,82.672,143.196,133.6,137.612,195.2z M324.436,189.408
			c-0.68-0.584-1.368-1.16-2.072-1.72s-1.368-1.016-2.064-1.512c-0.696-0.496-1.496-1.056-2.264-1.552
			c-0.768-0.496-1.392-0.8-2.088-1.24c-0.8-0.48-1.664-0.968-2.512-1.408c-0.624-0.32-1.272-0.6-1.912-0.896
			c-0.976-0.456-1.944-0.92-2.944-1.312c-0.408-0.168-0.84-0.296-1.264-0.448c-5.787-2.156-11.898-3.314-18.072-3.424
			c-0.416,0-0.8-0.064-1.248-0.064h-0.192c-2.272,0.023-4.54,0.183-6.792,0.48l0.032,0.024c-0.592,0.072-1.176,0.176-1.76,0.264
			c-1.768,0.28-3.52,0.64-5.24,1.08c-0.456,0.12-0.912,0.216-1.36,0.344c-4.323,1.231-8.479,2.985-12.376,5.224
			c-0.344,0.192-0.672,0.4-1.008,0.6c-1.568,0.944-3.091,1.968-4.568,3.072c-0.392,0.288-0.8,0.568-1.16,0.864
			c-1.573,1.234-3.082,2.547-4.52,3.936c-0.144,0.144-0.304,0.272-0.448,0.416c-0.144,0.144-0.208,0.176-0.304,0.272
			c-1.411,1.455-2.747,2.983-4,4.576c-0.096,0.128-0.216,0.24-0.32,0.368c-1.452,1.852-2.788,3.791-4,5.808
			c-1.231-2.012-2.588-3.944-4.064-5.784c-1.356-1.714-2.812-3.346-4.36-4.888c-0.088-0.088-0.192-0.168-0.288-0.256l-0.352-0.328
			c-1.465-1.413-3.003-2.748-4.608-4c-0.384-0.296-0.8-0.568-1.168-0.856c-1.472-1.067-2.989-2.075-4.552-3.024l-1.024-0.608
			c-3.895-2.204-8.042-3.929-12.352-5.136c-0.448-0.128-0.912-0.224-1.368-0.336c-1.717-0.432-3.456-0.784-5.216-1.056
			c-0.584-0.088-1.168-0.184-1.76-0.256c-2.242-0.286-4.5-0.436-6.76-0.448h-0.192c-2.239,0.017-4.476,0.172-6.696,0.464
			c-0.624,0.08-1.232,0.176-1.848,0.272c-1.733,0.272-3.443,0.624-5.128,1.056c-0.472,0.12-0.944,0.216-1.408,0.344
			c-2.047,0.582-4.058,1.282-6.024,2.096c-0.464,0.192-0.904,0.416-1.36,0.616c-1.552,0.688-3.064,1.445-4.536,2.272
			c-0.512,0.28-1.024,0.56-1.528,0.864c-1.817,1.076-3.572,2.253-5.256,3.528l-0.176,0.144c-1.253,0.965-2.467,1.981-3.64,3.048
			c8.872-80.624,44.16-142.744,85.048-142.888h0.136c40.856,0,76.472,61.824,86,142.288
			C325.164,189.976,324.788,189.704,324.436,189.408z M383.804,175.504l0.032,0.032c-15.977,0.079-31.153,7.006-41.68,19.024
			c-6-61.6-26.184-112.488-54-140.08c64.279,17.555,114.113,68.38,130.4,132.992C408.631,179.72,396.399,175.507,383.804,175.504z"
			/>
	</g>
</g>
<g>
</g>
<g>
</g>
<g>
</g>
<g>
</g>
<g>
</g>
<g>
</g>
<g>
</g>
<g>
</g>
<g>
</g>
<g>
</g>
<g>
</g>
<g>
</g>
<g>
</g>
<g>
</g>
<g>
</g>
</svg>
