<?xml version="1.0" encoding="iso-8859-1"?>
<!-- Generator: Adobe Illustrator 19.0.0, SVG Export Plug-In . SVG Version: 6.00 Build 0)  -->
<svg version="1.1" id="Capa_1" xmlns="http://www.w3.org/2000/svg" xmlns:xlink="http://www.w3.org/1999/xlink" x="0px" y="0px"
	 viewBox="0 0 479.796 479.796" style="enable-background:new 0 0 479.796 479.796;" xml:space="preserve">
<g>
	<g>
		<g>
			<path d="M247.966,79.996V55.788c0-4.418-3.582-8-8-8s-8,3.582-8,8v24.208C124.482,84.363,39.66,172.887,39.886,280.46
				c0,4.418,3.582,8,8,8s8-3.582,8-8c-0.071-22.085,17.771-40.049,39.856-40.128h0.128c22.024,0.035,39.89,17.84,40,39.864
				c0,4.418,3.582,8,8,8c1.07-0.001,2.128-0.219,3.112-0.64c0.224-0.096,0.384-0.296,0.608-0.416
				c0.702-0.336,1.349-0.775,1.92-1.304c0.184-0.244,0.355-0.498,0.512-0.76c0.479-0.536,0.881-1.136,1.192-1.784
				c0.113-0.393,0.193-0.794,0.24-1.2c0.209-0.613,0.338-1.25,0.384-1.896c-0.004-2.687,0.264-5.367,0.8-8
				c0.128-0.64,0.4-1.24,0.56-1.872c0.44-1.906,1.017-3.778,1.728-5.6c0.296-0.696,0.736-1.32,1.072-2.008
				c0.756-1.656,1.622-3.26,2.592-4.8c1.171-1.685,2.471-3.276,3.888-4.76c0.68-0.744,1.376-1.464,2.112-2.152
				c2.781-2.823,6.074-5.09,9.704-6.68c0.656-0.32,1.264-0.76,1.944-1.048c1.82-0.725,3.692-1.313,5.6-1.76
				c0.648-0.168,1.256-0.448,1.912-0.584c2.633-0.537,5.313-0.805,8-0.8h0.128c22.026,0.022,39.899,17.83,40,39.856l0.664,144
				c0.145,30.836,25.163,55.769,56,55.808h0.224c30.905-0.15,55.862-25.279,55.8-56.184l-0.056-16c0-4.418-3.582-8-8-8s-8,3.582-8,8
				l0.056,16c0.031,22.069-17.787,40.009-39.856,40.128h-0.136c-22.031-0.026-39.903-17.842-40-39.872l-0.664-144
				c-0.044-22.083,17.789-40.038,39.872-40.144h0.136c10.565-0.022,20.703,4.164,28.176,11.632c1.873,1.859,3.561,3.895,5.04,6.08
				c1.006,1.586,1.899,3.241,2.672,4.952c0.312,0.648,0.744,1.24,1.024,1.896c0.651,1.678,1.186,3.4,1.6,5.152
				c0.208,0.8,0.544,1.496,0.704,2.288c0.208,1.363,0.347,2.735,0.416,4.112c0.12,1.256,0.376,2.48,0.376,3.752c0,4.418,3.582,8,8,8
				c1.07-0.003,2.128-0.221,3.112-0.64c0.31-0.179,0.607-0.379,0.888-0.6c1.109-0.448,2.001-1.308,2.488-2.4
				c0.331-0.402,0.62-0.836,0.864-1.296c0.154-0.501,0.259-1.015,0.312-1.536c0.159-0.521,0.264-1.057,0.312-1.6
				c-0.049-22.085,17.787-40.043,39.872-40.144h0.136c22.026,0,39.907,17.806,40,39.832c0,4.418,3.582,8,8,8s8-3.582,8-8
				C439.467,172.168,354.912,84.413,247.966,79.996z M137.566,243.06c-10.579-11.927-25.754-18.76-41.696-18.776h-0.184
				c-12.596,0.03-24.809,4.328-34.648,12.192c15.854-64.789,65.417-115.991,129.656-133.944
				c-10.755,11.245-19.646,24.135-26.336,38.184C149.32,172.933,140.243,207.607,137.566,243.06z M324.222,237.092
				c-0.632-0.544-1.264-1.072-1.912-1.6c-0.648-0.528-1.512-1.144-2.288-1.688s-1.36-0.96-2.064-1.408
				c-0.704-0.448-1.6-0.968-2.4-1.432s-1.44-0.8-2.176-1.208c-0.736-0.408-1.696-0.8-2.552-1.2c-0.736-0.336-1.472-0.68-2.224-0.976
				c-0.904-0.36-1.824-0.664-2.744-0.976c-0.736-0.256-1.472-0.52-2.224-0.744c-0.984-0.288-1.984-0.512-2.992-0.744
				c-0.712-0.168-1.408-0.36-2.128-0.496c-1.144-0.224-2.296-0.36-3.456-0.512c-0.6-0.072-1.2-0.192-1.808-0.248
				c-1.768-0.168-3.56-0.264-5.368-0.264l-0.2,0.024c-19.663,0.081-37.843,10.469-47.896,27.368
				c-10.156-16.759-28.324-26.999-47.92-27.008h-0.184c-1.824,0-3.624,0.104-5.416,0.28c-0.52,0.048-1.032,0.152-1.552,0.224
				c-1.264,0.16-2.52,0.32-3.76,0.568c-0.608,0.12-1.208,0.288-1.808,0.432c-1.128,0.264-2.256,0.52-3.36,0.848
				c-0.648,0.2-1.28,0.44-1.92,0.656c-1.032,0.352-2.064,0.704-3.08,1.112c-0.656,0.272-1.288,0.576-1.936,0.872
				c-0.968,0.432-1.928,0.872-2.864,1.368c-0.656,0.336-1.28,0.712-1.92,1.08c-0.896,0.52-1.792,1.04-2.664,1.6
				c-0.632,0.416-1.248,0.856-1.864,1.296c-0.84,0.6-1.664,1.208-2.472,1.848c-0.6,0.48-1.184,0.984-1.768,1.488
				c-0.432,0.376-0.88,0.704-1.296,1.088c2.905-31.518,11.261-62.293,24.696-90.952c16.584-33.448,38.064-51.92,60.544-52h0.144
				c40.856,0,76.464,61.824,86,142.264C325.014,237.716,324.59,237.42,324.222,237.092z M383.894,223.292h-0.2
				c-15.979,0.078-31.158,7.005-41.688,19.024c-6-61.6-26.176-112.488-53.992-140.08c64.279,17.555,114.113,68.38,130.4,132.992
				C408.581,227.474,396.417,223.268,383.894,223.292z"/>
			<path d="M95.966,111.788c22.08-0.026,39.974-17.92,40-40c0-19.2-27.832-60.472-33.416-68.544
				c-0.44-0.572-0.952-1.084-1.524-1.524c-3.636-2.795-8.85-2.113-11.644,1.524c-5.584,8.072-33.416,49.344-33.416,68.544
				C55.993,93.868,73.886,111.762,95.966,111.788z M95.966,22.252c11.512,17.992,24,40.784,24,49.536c0,13.255-10.745,24-24,24
				s-24-10.745-24-24C71.966,63.052,84.454,40.252,95.966,22.252z"/>
		</g>
	</g>
</g>
<g>
</g>
<g>
</g>
<g>
</g>
<g>
</g>
<g>
</g>
<g>
</g>
<g>
</g>
<g>
</g>
<g>
</g>
<g>
</g>
<g>
</g>
<g>
</g>
<g>
</g>
<g>
</g>
<g>
</g>
</svg>
