<?xml version="1.0" encoding="iso-8859-1"?>
<!-- Generator: Adobe Illustrator 19.0.0, SVG Export Plug-In . SVG Version: 6.00 Build 0)  -->
<svg version="1.1" id="Capa_1" xmlns="http://www.w3.org/2000/svg" xmlns:xlink="http://www.w3.org/1999/xlink" x="0px" y="0px"
	 viewBox="0 0 480 480" style="enable-background:new 0 0 480 480;" xml:space="preserve">
<g>
	<g>
		<path d="M472,0H8C3.582,0,0,3.582,0,8s3.582,8,8,8h464c4.418,0,8-3.582,8-8S476.418,0,472,0z"/>
	</g>
</g>
<g>
	<g>
		<path d="M448,32H32c-4.418,0-8,3.582-8,8s3.582,8,8,8h416c4.418,0,8-3.582,8-8S452.418,32,448,32z"/>
	</g>
</g>
<g>
	<g>
		<path d="M424,64H56c-4.418,0-8,3.582-8,8s3.582,8,8,8h368c4.418,0,8-3.582,8-8S428.418,64,424,64z"/>
	</g>
</g>
<g>
	<g>
		<path d="M400,96H80c-4.418,0-8,3.582-8,8s3.582,8,8,8h320c4.418,0,8-3.582,8-8S404.418,96,400,96z"/>
	</g>
</g>
<g>
	<g>
		<path d="M376,128H104c-4.418,0-8,3.582-8,8s3.582,8,8,8h272c4.418,0,8-3.582,8-8S380.418,128,376,128z"/>
	</g>
</g>
<g>
	<g>
		<path d="M352,160H128c-4.418,0-8,3.582-8,8s3.582,8,8,8h224c4.418,0,8-3.582,8-8S356.418,160,352,160z"/>
	</g>
</g>
<g>
	<g>
		<path d="M328,192H152c-4.418,0-8,3.582-8,8s3.582,8,8,8h176c4.418,0,8-3.582,8-8S332.418,192,328,192z"/>
	</g>
</g>
<g>
	<g>
		<path d="M344,224H168c-4.418,0-8,3.582-8,8s3.582,8,8,8h176c4.418,0,8-3.582,8-8S348.418,224,344,224z"/>
	</g>
</g>
<g>
	<g>
		<path d="M368,256H192c-4.418,0-8,3.582-8,8s3.582,8,8,8h176c4.418,0,8-3.582,8-8S372.418,256,368,256z"/>
	</g>
</g>
<g>
	<g>
		<path d="M344,288H216c-4.418,0-8,3.582-8,8s3.582,8,8,8h128c4.418,0,8-3.582,8-8S348.418,288,344,288z"/>
	</g>
</g>
<g>
	<g>
		<path d="M320,320h-80c-4.418,0-8,3.582-8,8s3.582,8,8,8h80c4.418,0,8-3.582,8-8S324.418,320,320,320z"/>
	</g>
</g>
<g>
	<g>
		<path d="M288,352h-48c-4.418,0-8,3.582-8,8s3.582,8,8,8h48c4.418,0,8-3.582,8-8S292.418,352,288,352z"/>
	</g>
</g>
<g>
	<g>
		<path d="M248,384h-32c-4.418,0-8,3.582-8,8s3.582,8,8,8h32c4.418,0,8-3.582,8-8S252.418,384,248,384z"/>
	</g>
</g>
<g>
	<g>
		<path d="M224,416h-32c-4.418,0-8,3.582-8,8s3.582,8,8,8h32c4.418,0,8-3.582,8-8S228.418,416,224,416z"/>
	</g>
</g>
<g>
	<g>
		<path d="M184,448h-16c-4.418,0-8,3.582-8,8s3.582,8,8,8h16c4.418,0,8-3.582,8-8S188.418,448,184,448z"/>
	</g>
</g>
<g>
	<g>
		<path d="M144,464h-8c-4.418,0-8,3.582-8,8s3.582,8,8,8h8c4.418,0,8-3.582,8-8S148.418,464,144,464z"/>
	</g>
</g>
<g>
</g>
<g>
</g>
<g>
</g>
<g>
</g>
<g>
</g>
<g>
</g>
<g>
</g>
<g>
</g>
<g>
</g>
<g>
</g>
<g>
</g>
<g>
</g>
<g>
</g>
<g>
</g>
<g>
</g>
</svg>
