<?xml version="1.0" encoding="iso-8859-1"?>
<!-- Generator: Adobe Illustrator 19.0.0, SVG Export Plug-In . SVG Version: 6.00 Build 0)  -->
<svg version="1.1" id="Capa_1" xmlns="http://www.w3.org/2000/svg" xmlns:xlink="http://www.w3.org/1999/xlink" x="0px" y="0px"
	 viewBox="0 0 483.297 483.297" style="enable-background:new 0 0 483.297 483.297;" xml:space="preserve">
<g>
	<g>
		<path d="M478.698,176.275c-13.122-55.919-69.09-90.612-125.009-77.491c-2.554-46.411-35.4-85.581-80.656-96.184
			c-1.928-0.456-3.944-0.824-5.544-1.04c-2.752-0.52-5.456-0.872-8.352-1.144c-31.083-2.787-61.779,8.504-83.648,30.768
			c-6.595,6.646-12.206,14.199-16.664,22.432l-0.056,0.088c-0.261,0.395-0.486,0.813-0.672,1.248
			c-3.397,6.271-6.114,12.887-8.104,19.736c-1.717,5.939-2.906,12.019-3.552,18.168c-0.427,3.694-0.633,7.41-0.616,11.128
			c0,0.536,0,1.072,0,1.6c-17.08-3.413-34.805-1.228-50.544,6.232c-3.444,1.685-6.771,3.599-9.96,5.728
			c-1.906,1.229-3.721,2.592-5.432,4.08c-3.004,2.371-5.831,4.959-8.456,7.744c-2.587,2.716-4.962,5.626-7.104,8.704
			c-5.354,7.62-9.332,16.119-11.752,25.112c-3.516,1.067-6.932,2.44-10.208,4.104c-5.832,2.84-11.254,6.454-16.12,10.744
			c-3.502,3.033-6.679,6.422-9.48,10.112c-9.725,12.541-14.984,27.97-14.944,43.84c0.044,39.746,32.254,71.956,72,72h304
			c2.968,0,5.848-0.088,8.664-0.344c4.956-0.432,9.875-1.22,14.718-2.357C457.126,288.162,491.82,232.194,478.698,176.275z
			 M385.097,287.697c-2.4,0.216-4.8,0.288-7.272,0.288h-304c-30.913-0.035-55.965-25.087-56-56
			c-0.019-12.366,4.095-24.384,11.688-34.144c2.163-2.847,4.619-5.459,7.328-7.792c3.837-3.378,8.113-6.222,12.712-8.456
			c3.69-1.839,7.587-3.231,11.608-4.144c3.024-0.728,5.352-3.143,5.968-6.192c1.749-8.601,5.251-16.748,10.288-23.936
			c1.688-2.441,3.56-4.749,5.6-6.904c2.235-2.359,4.641-4.549,7.2-6.552c1.267-1.081,2.603-2.078,4-2.984
			c2.562-1.718,5.235-3.265,8-4.632c8.62-4.121,18.053-6.261,27.608-6.264c7.49-0.046,14.924,1.291,21.928,3.944
			c1.26,0.485,2.622,0.643,3.96,0.46c4.377-0.6,7.44-4.635,6.84-9.012c-0.503-3.776-0.746-7.582-0.728-11.392
			c-0.017-3.101,0.154-6.2,0.512-9.28c0.54-5.252,1.547-10.446,3.008-15.52c1.722-5.936,4.099-11.662,7.088-17.072
			c0.064-0.112,0.12-0.232,0.176-0.336l0.264-0.496c3.749-6.934,8.468-13.297,14.016-18.896c16.544-16.95,39.25-26.475,62.936-26.4
			c2.656,0,5.312,0.152,7.872,0.36c2.312,0.2,4.544,0.504,7.2,1c1.504,0.208,3.008,0.48,4.52,0.84
			c39.912,9.32,68.212,44.814,68.408,85.8c0,1.728-0.072,3.448-0.152,5.168c-0.046,1.042,0.112,2.084,0.466,3.065
			c1.498,4.157,6.081,6.312,10.238,4.815c9.449-3.376,19.414-5.084,29.448-5.048c45.905-0.084,84.162,35.133,87.872,80.888
			C469.625,241.315,433.539,283.769,385.097,287.697z"/>
	</g>
</g>
<g>
	<g>
		<path d="M330.793,319.213c-3.07-3.178-8.134-3.266-11.312-0.196l-22.624,22.624c-1.499,1.5-2.342,3.534-2.342,5.654
			c-0.001,4.418,3.58,8.001,7.998,8.002c2.122,0,4.156-0.844,5.656-2.344l22.624-22.624
			C333.788,327.229,333.788,322.313,330.793,319.213z"/>
	</g>
</g>
<g>
	<g>
		<path d="M394.793,319.213c-3.07-3.178-8.134-3.266-11.312-0.196l-22.624,22.624c-1.499,1.5-2.342,3.534-2.342,5.654
			c-0.001,4.418,3.58,8.001,7.998,8.002c2.122,0,4.156-0.844,5.656-2.344l22.624-22.624
			C397.788,327.229,397.788,322.313,394.793,319.213z"/>
	</g>
</g>
<g>
	<g>
		<path d="M330.793,383.213c-3.07-3.178-8.134-3.266-11.312-0.196l-22.624,22.624c-1.499,1.5-2.342,3.534-2.342,5.654
			c-0.001,4.418,3.58,8.001,7.998,8.002c2.122,0,4.156-0.844,5.656-2.344l22.624-22.624
			C333.788,391.229,333.788,386.313,330.793,383.213z"/>
	</g>
</g>
<g>
	<g>
		<path d="M394.793,383.213c-3.07-3.178-8.134-3.266-11.312-0.196l-22.624,22.624c-1.499,1.5-2.342,3.534-2.342,5.654
			c-0.001,4.418,3.58,8.001,7.998,8.002c2.122,0,4.156-0.844,5.656-2.344l22.624-22.624
			C397.788,391.229,397.788,386.313,394.793,383.213z"/>
	</g>
</g>
<g>
	<g>
		<path d="M298.793,447.213c-3.07-3.178-8.134-3.266-11.312-0.196l-22.624,22.624c-1.499,1.5-2.342,3.534-2.342,5.654
			c-0.001,4.418,3.58,8.001,7.998,8.002c2.122,0,4.156-0.844,5.656-2.344l22.624-22.624
			C301.788,455.229,301.788,450.313,298.793,447.213z"/>
	</g>
</g>
<g>
	<g>
		<path d="M362.793,447.213c-3.07-3.178-8.134-3.266-11.312-0.196l-22.624,22.624c-1.499,1.5-2.342,3.534-2.342,5.654
			c-0.001,4.418,3.58,8.001,7.998,8.002c2.122,0,4.156-0.844,5.656-2.344l22.624-22.624
			C365.788,455.229,365.788,450.313,362.793,447.213z"/>
	</g>
</g>
<g>
	<g>
		<path d="M138.793,318.82c-3.178-3.07-8.242-2.982-11.312,0.196l-22.624,22.624c-1.499,1.5-2.342,3.534-2.342,5.654
			c-0.001,4.418,3.58,8.001,7.998,8.002c2.122,0,4.156-0.844,5.656-2.344l22.624-22.624c0.067-0.064,0.132-0.13,0.196-0.196
			C142.059,326.954,141.971,321.89,138.793,318.82z"/>
	</g>
</g>
<g>
	<g>
		<path d="M202.793,318.82c-3.178-3.07-8.242-2.982-11.312,0.196l-22.624,22.624c-1.499,1.5-2.342,3.534-2.342,5.654
			c-0.001,4.418,3.58,8.001,7.998,8.002c2.122,0,4.156-0.844,5.656-2.344l22.624-22.624c0.067-0.064,0.132-0.13,0.196-0.196
			C206.059,326.954,205.971,321.89,202.793,318.82z"/>
	</g>
</g>
<g>
	<g>
		<path d="M106.793,382.82c-3.178-3.07-8.242-2.982-11.312,0.196l-22.624,22.624c-1.499,1.5-2.342,3.534-2.342,5.654
			c-0.001,4.418,3.58,8.001,7.998,8.002c2.122,0,4.156-0.844,5.656-2.344l22.624-22.624c0.067-0.064,0.132-0.13,0.196-0.196
			C110.059,390.954,109.971,385.89,106.793,382.82z"/>
	</g>
</g>
<g>
	<g>
		<path d="M170.793,382.82c-3.178-3.07-8.242-2.982-11.312,0.196l-22.624,22.624c-1.499,1.5-2.342,3.534-2.342,5.654
			c-0.001,4.418,3.58,8.001,7.998,8.002c2.122,0,4.156-0.844,5.656-2.344l22.624-22.624c0.067-0.064,0.132-0.13,0.196-0.196
			C174.059,390.954,173.971,385.89,170.793,382.82z"/>
	</g>
</g>
<g>
	<g>
		<path d="M74.793,446.821c-3.178-3.07-8.242-2.982-11.312,0.196l-22.624,22.624c-1.499,1.5-2.342,3.534-2.342,5.654
			c-0.001,4.418,3.58,8.001,7.998,8.002c2.122,0,4.156-0.844,5.656-2.344l22.624-22.624c0.067-0.064,0.132-0.13,0.196-0.196
			C78.059,454.955,77.971,449.89,74.793,446.821z"/>
	</g>
</g>
<g>
	<g>
		<path d="M138.793,446.82c-3.178-3.07-8.242-2.982-11.312,0.196l-22.624,22.624c-1.499,1.5-2.342,3.534-2.342,5.654
			c-0.001,4.418,3.58,8.001,7.998,8.002c2.122,0,4.156-0.844,5.656-2.344l22.624-22.624c0.067-0.064,0.132-0.13,0.196-0.196
			C142.059,454.954,141.971,449.89,138.793,446.82z"/>
	</g>
</g>
<g>
	<g>
		<path d="M273.825,359.985h-44.688l32.976-32.968c3.178-3.07,3.266-8.134,0.196-11.312c-3.07-3.178-8.134-3.266-11.312-0.196
			c-0.066,0.064-0.132,0.13-0.196,0.196l-45.264,45.248c-0.197,0.254-0.376,0.521-0.536,0.8c-1.979,1.463-3.155,3.771-3.176,6.232
			c0,4.418,3.582,8,8,8h44.688l-40.976,40.968c-3.178,3.07-3.266,8.134-0.196,11.312c3.069,3.178,8.134,3.266,11.312,0.196
			c0.067-0.064,0.132-0.13,0.196-0.196l53.264-53.248c0.197-0.254,0.376-0.521,0.536-0.8c1.979-1.463,3.155-3.771,3.176-6.232
			C281.825,363.567,278.244,359.985,273.825,359.985z"/>
	</g>
</g>
<g>
	<g>
		<path d="M202.793,446.82c-3.178-3.07-8.242-2.982-11.312,0.196l-22.624,22.624c-1.499,1.5-2.342,3.534-2.342,5.654
			c-0.001,4.418,3.58,8.001,7.998,8.002c2.122,0,4.156-0.844,5.656-2.344l22.624-22.624c0.067-0.064,0.132-0.13,0.196-0.196
			C206.059,454.954,205.971,449.89,202.793,446.82z"/>
	</g>
</g>
<g>
</g>
<g>
</g>
<g>
</g>
<g>
</g>
<g>
</g>
<g>
</g>
<g>
</g>
<g>
</g>
<g>
</g>
<g>
</g>
<g>
</g>
<g>
</g>
<g>
</g>
<g>
</g>
<g>
</g>
</svg>
