<?xml version="1.0" encoding="iso-8859-1"?>
<!-- Generator: Adobe Illustrator 19.0.0, SVG Export Plug-In . SVG Version: 6.00 Build 0)  -->
<svg version="1.1" id="Capa_1" xmlns="http://www.w3.org/2000/svg" xmlns:xlink="http://www.w3.org/1999/xlink" x="0px" y="0px"
	 viewBox="0 0 480 480" style="enable-background:new 0 0 480 480;" xml:space="preserve">
<g>
	<g>
		<g>
			<path d="M352.849,288.312v-32.136h-16V292.8c0,2.858,1.525,5.499,4,6.928c13.378,7.724,24.487,18.833,32.21,32.21
				c24.301,42.09,9.88,95.91-32.21,120.21c-42.09,24.301-95.91,9.88-120.21-32.21c-24.301-42.09-9.88-95.91,32.21-120.21
				c2.475-1.429,4-4.07,4-6.928V56c0.026-22.08,17.92-39.974,40-40c22.075,0.04,39.96,17.925,40,40v24h16V56
				c-0.04-30.911-25.089-55.96-56-56c-30.913,0.035-55.965,25.087-56,56v232.312c-29.976,19.115-48.11,52.218-48.082,87.77
				C192.812,433.52,239.411,480.045,296.849,480c35.552,0.028,68.655-18.106,87.77-48.082
				C415.502,383.489,401.278,319.195,352.849,288.312z"/>
			<path d="M312.849,64l-32,0.104c-4.418,0-8,3.582-8,8v253.32c-15.725,7.439-27.1,21.762-30.784,38.764
				c-6.549,30.227,12.645,60.039,42.872,66.588c3.889,0.809,7.851,1.219,11.824,1.224c21.616,0.011,41.309-12.421,50.596-31.94
				c13.288-27.928,1.42-61.34-26.508-74.628V72C320.849,67.582,317.267,64,312.849,64z M327.959,350.881
				c13.876,17.144,11.226,42.291-5.918,56.167c-9.483,7.661-21.923,10.619-33.84,8.048c-13.451-2.983-24.421-12.679-29.032-25.663
				c-7.394-20.817,3.487-43.687,24.304-51.081c3.216-1.117,5.374-4.147,5.376-7.552V80.08l16-0.08v250.8
				c0.002,3.405,2.159,6.435,5.376,7.552C317.18,340.81,323.318,345.147,327.959,350.881z"/>
			<path d="M197.841,138.64c4.268-1.144,6.8-5.531,5.656-9.798c0-0.001,0-0.001,0-0.002l-3.28-12.256l10.984,6.344
				c3.812,2.234,8.713,0.956,10.947-2.856c2.234-3.812,0.956-8.713-2.856-10.947c-0.03-0.018-0.061-0.035-0.092-0.053l-10.984-6.344
				l12.248-3.28c4.263-1.162,6.776-5.56,5.615-9.822c-1.154-4.235-5.505-6.749-9.75-5.634l0,0.008l-27.704,7.424L168.849,80
				l19.776-11.416l27.704,7.424c4.273,1.122,8.647-1.432,9.77-5.705c1.115-4.245-1.399-8.596-5.634-9.751l-12.248-3.28l10.984-6.344
				c3.841-2.184,5.184-7.068,3.001-10.909c-2.184-3.841-7.068-5.184-10.909-3.001c-0.031,0.018-0.061,0.035-0.092,0.053
				l-10.984,6.344l3.28-12.256c1.029-4.297-1.62-8.614-5.917-9.643c-4.134-0.99-8.32,1.425-9.531,5.499l-7.416,27.712
				l-19.784,11.416V43.312l20.28-20.288c3.069-3.178,2.981-8.243-0.197-11.312c-3.1-2.994-8.015-2.994-11.115,0l-8.968,8.968V8
				c0-4.418-3.582-8-8-8s-8,3.582-8,8v12.68l-8.968-8.968c-3.178-3.069-8.243-2.981-11.312,0.197c-2.994,3.1-2.994,8.015,0,11.115
				l20.28,20.288v22.832l-19.776-11.416l-7.424-27.712c-1.155-4.266-5.55-6.787-9.816-5.632c-4.266,1.155-6.787,5.55-5.632,9.816
				l3.28,12.256l-10.984-6.384c-3.812-2.234-8.713-0.956-10.947,2.856c-2.234,3.812-0.956,8.713,2.856,10.947
				c0.03,0.018,0.061,0.035,0.092,0.053l10.984,6.344l-12.248,3.28c-4.302,1.008-6.972,5.312-5.964,9.614s5.312,6.972,9.614,5.964
				c0.163-0.038,0.325-0.082,0.486-0.13l27.704-7.424L136.849,80l-19.776,11.416L89.369,84c-4.273-1.122-8.647,1.432-9.77,5.705
				c-1.115,4.245,1.399,8.596,5.634,9.751l12.248,3.28l-10.984,6.344c-3.841,2.184-5.184,7.068-3,10.909s7.068,5.184,10.909,3
				c0.031-0.017,0.061-0.035,0.092-0.053l10.984-6.344l-3.28,12.256c-1.145,4.267,1.387,8.655,5.654,9.799c0.001,0,0.001,0,0.002,0
				c0.679,0.18,1.378,0.272,2.08,0.272c3.618-0.003,6.783-2.434,7.72-5.928l7.416-27.712l19.776-11.424v22.832l-20.28,20.288
				c-3.069,3.178-2.981,8.243,0.197,11.312c3.1,2.994,8.015,2.994,11.115,0l8.968-8.968V152c0,4.418,3.582,8,8,8s8-3.582,8-8v-12.68
				l8.968,8.968c3.178,3.069,8.243,2.981,11.312-0.197c2.994-3.1,2.994-8.015,0-11.115l-20.28-20.288V93.856l19.776,11.416
				l7.416,27.712c0.937,3.494,4.102,5.925,7.72,5.928C196.463,138.912,197.162,138.82,197.841,138.64z"/>
			<rect x="336.849" y="96" width="32" height="16"/>
			<rect x="336.849" y="128" width="32" height="16"/>
			<rect x="336.849" y="160" width="32" height="16"/>
			<rect x="336.849" y="192" width="32" height="16"/>
			<rect x="336.849" y="224" width="32" height="16"/>
		</g>
	</g>
</g>
<g>
</g>
<g>
</g>
<g>
</g>
<g>
</g>
<g>
</g>
<g>
</g>
<g>
</g>
<g>
</g>
<g>
</g>
<g>
</g>
<g>
</g>
<g>
</g>
<g>
</g>
<g>
</g>
<g>
</g>
</svg>
