<?xml version="1.0" encoding="iso-8859-1"?>
<!-- Generator: Adobe Illustrator 19.0.0, SVG Export Plug-In . SVG Version: 6.00 Build 0)  -->
<svg version="1.1" id="Capa_1" xmlns="http://www.w3.org/2000/svg" xmlns:xlink="http://www.w3.org/1999/xlink" x="0px" y="0px"
	 viewBox="0 0 480 480" style="enable-background:new 0 0 480 480;" xml:space="preserve">
<g>
	<g>
		<g>
			<path d="M315.952,64l-32,0.104c-4.418,0-8,3.582-8,8v253.32c-15.725,7.439-27.1,21.762-30.784,38.764
				c-6.549,30.227,12.645,60.039,42.872,66.588c3.889,0.809,7.851,1.219,11.824,1.224c21.616,0.011,41.309-12.421,50.596-31.94
				c13.288-27.928,1.42-61.34-26.508-74.628V72C323.952,67.582,320.371,64,315.952,64z M331.063,350.881
				c13.876,17.144,11.226,42.291-5.918,56.167c-9.483,7.661-21.923,10.619-33.84,8.048c-13.451-2.983-24.421-12.679-29.032-25.663
				c-7.394-20.817,3.487-43.687,24.304-51.081c3.216-1.117,5.374-4.147,5.376-7.552V80.08l16-0.08v250.8
				c0.002,3.405,2.159,6.435,5.376,7.552C320.284,340.81,326.422,345.147,331.063,350.881z"/>
			<path d="M355.952,288.312v-32.136h-16V292.8c0,2.858,1.525,5.499,4,6.928c13.378,7.724,24.487,18.833,32.21,32.21
				c24.301,42.09,9.88,95.91-32.21,120.21c-42.09,24.301-95.91,9.88-120.21-32.21c-24.301-42.09-9.88-95.91,32.21-120.21
				c2.475-1.429,4-4.07,4-6.928V56c0.026-22.08,17.92-39.974,40-40c22.075,0.04,39.96,17.925,40,40v24h16V56
				c-0.04-30.911-25.089-55.96-56-56c-30.913,0.035-55.965,25.087-56,56v232.312c-29.976,19.115-48.11,52.218-48.082,87.77
				C195.916,433.52,242.515,480.045,299.952,480c35.552,0.028,68.655-18.106,87.77-48.082
				C418.605,383.489,404.381,319.195,355.952,288.312z"/>
			<path d="M155.952,40c-22.091,0-40,17.909-40,40s17.909,40,40,40c22.08-0.026,39.974-17.92,40-40
				C195.952,57.909,178.044,40,155.952,40z M155.952,104c-13.255,0-24-10.745-24-24s10.745-24,24-24s24,10.745,24,24
				S169.207,104,155.952,104z"/>
			<rect x="147.952" width="16" height="32"/>
			<rect x="94.7" y="26.743" transform="matrix(0.7072 0.707 -0.707 0.7072 56.9818 -68.0964)" width="32" height="16"/>
			<rect x="75.952" y="72" width="32" height="16"/>
			<rect x="102.711" y="109.248" transform="matrix(-0.7071 -0.7071 0.7071 -0.7071 100.4322 292.0967)" width="16" height="32"/>
			<rect x="147.952" y="128" width="16" height="32"/>
			<rect x="185.208" y="117.228" transform="matrix(0.7072 0.707 -0.707 0.7072 147.4627 -105.5927)" width="32" height="16"/>
			<rect x="203.952" y="72" width="32" height="16"/>
			<rect x="193.202" y="18.746" transform="matrix(0.7071 0.7071 -0.7071 0.7071 83.4997 -132.0942)" width="16" height="32"/>
			<rect x="339.952" y="96" width="32" height="16"/>
			<rect x="339.952" y="128" width="32" height="16"/>
			<rect x="339.952" y="160" width="32" height="16"/>
			<rect x="339.952" y="192" width="32" height="16"/>
			<rect x="339.952" y="224" width="32" height="16"/>
		</g>
	</g>
</g>
<g>
</g>
<g>
</g>
<g>
</g>
<g>
</g>
<g>
</g>
<g>
</g>
<g>
</g>
<g>
</g>
<g>
</g>
<g>
</g>
<g>
</g>
<g>
</g>
<g>
</g>
<g>
</g>
<g>
</g>
</svg>
