<?xml version="1.0" encoding="iso-8859-1"?>
<!-- Generator: Adobe Illustrator 19.0.0, SVG Export Plug-In . SVG Version: 6.00 Build 0)  -->
<svg version="1.1" id="Capa_1" xmlns="http://www.w3.org/2000/svg" xmlns:xlink="http://www.w3.org/1999/xlink" x="0px" y="0px"
	 viewBox="0 0 479.961 479.961" style="enable-background:new 0 0 479.961 479.961;" xml:space="preserve">
<g>
	<g>
		<g>
			<path d="M329.622,66.336c-1.499-1.495-3.53-2.336-5.648-2.336l-32,0.104c-4.418,0-8,3.582-8,8v253.32
				c-27.952,13.238-39.879,46.629-26.642,74.58c7.438,15.706,21.747,27.069,38.73,30.756c3.891,0.815,7.856,1.23,11.832,1.24
				c30.928,0.011,56.009-25.052,56.02-55.98c0.008-21.614-12.423-41.302-31.94-50.588V72
				C331.973,69.875,331.127,67.837,329.622,66.336z M347.974,376c0.015,12.057-5.429,23.472-14.808,31.048
				c-9.482,7.664-21.923,10.623-33.84,8.048c-21.567-4.783-35.174-26.144-30.391-47.712c2.983-13.451,12.679-24.421,25.663-29.032
				c3.216-1.117,5.374-4.147,5.376-7.552V80.08l16-0.08v250.8c0.001,3.403,2.155,6.432,5.368,7.552
				C337.321,343.962,348.005,359.065,347.974,376z"/>
			<path d="M395.609,319.948c-8.125-12.715-18.92-23.51-31.636-31.636v-32.136h-16V292.8c0,2.858,1.525,5.499,4,6.928
				c42.09,24.301,56.511,78.12,32.21,120.21c-24.301,42.09-78.12,56.511-120.21,32.21c-42.09-24.301-56.511-78.12-32.21-120.21
				c7.724-13.378,18.833-24.487,32.21-32.21c2.475-1.429,4-4.07,4-6.928V56c0.026-22.08,17.92-39.974,40-40
				c22.075,0.04,39.96,17.925,40,40v24h16V56c-0.035-30.913-25.087-55.965-56-56c-30.913,0.035-55.965,25.087-56,56v232.312
				c-48.4,30.928-62.564,95.236-31.636,143.636c30.928,48.4,95.236,62.564,143.636,31.636
				C412.374,432.655,426.537,368.347,395.609,319.948z"/>
			<rect x="347.974" y="96" width="32" height="16"/>
			<rect x="347.974" y="128" width="32" height="16"/>
			<rect x="347.974" y="160" width="32" height="16"/>
			<rect x="347.974" y="192" width="32" height="16"/>
			<rect x="347.974" y="224" width="32" height="16"/>
			<polygon points="155.974,144 171.974,144 171.974,112 195.974,112 195.974,96 171.974,96 171.974,88 203.974,88 203.974,72 
				155.974,72 			"/>
			<path d="M131.974,40c-13.255,0-24,10.745-24,24s10.745,24,24,24s24-10.745,24-24S145.229,40,131.974,40z M131.974,72
				c-4.418,0-8-3.582-8-8s3.582-8,8-8c4.418,0,8,3.582,8,8S136.392,72,131.974,72z"/>
			<path d="M243.974,88c0-48.601-39.399-88-88-88s-88,39.399-88,88s39.399,88,88,88C204.551,175.943,243.916,136.577,243.974,88z
				 M155.974,160c-39.765,0-72-32.236-72-72c0-39.765,32.235-72,72-72s72,32.235,72,72C227.925,127.744,195.718,159.952,155.974,160
				z"/>
		</g>
	</g>
</g>
<g>
</g>
<g>
</g>
<g>
</g>
<g>
</g>
<g>
</g>
<g>
</g>
<g>
</g>
<g>
</g>
<g>
</g>
<g>
</g>
<g>
</g>
<g>
</g>
<g>
</g>
<g>
</g>
<g>
</g>
</svg>
