<?xml version="1.0" encoding="iso-8859-1"?>
<!-- Generator: Adobe Illustrator 19.0.0, SVG Export Plug-In . SVG Version: 6.00 Build 0)  -->
<svg version="1.1" id="Capa_1" xmlns="http://www.w3.org/2000/svg" xmlns:xlink="http://www.w3.org/1999/xlink" x="0px" y="0px"
	 viewBox="0 0 480 480" style="enable-background:new 0 0 480 480;" xml:space="preserve">
<g>
	<g>
		<path d="M240,36c-4.418,0-8,3.582-8,8v48c0,4.418,3.582,8,8,8s8-3.582,8-8V44C248,39.582,244.418,36,240,36z"/>
	</g>
</g>
<g>
	<g>
		<path d="M176.976,102.944l-12.248-29.56c-1.808-4.031-6.542-5.833-10.574-4.025c-3.867,1.735-5.71,6.184-4.202,10.145
			l12.24,29.568c1.692,4.082,6.373,6.02,10.456,4.328C176.73,111.708,178.668,107.026,176.976,102.944z"/>
	</g>
</g>
<g>
	<g>
		<path d="M73.096,198.192l-29.56-12.24c-4.083-1.69-8.762,0.25-10.452,4.332c-1.69,4.082,0.25,8.762,4.332,10.452h-0.032
			l29.6,12.24c0.966,0.402,2.002,0.609,3.048,0.608c4.418,0.003,8.002-3.577,8.005-7.995
			C78.039,202.35,76.088,199.43,73.096,198.192z"/>
	</g>
</g>
<g>
	<g>
		<path d="M446.98,190.284c-1.69-4.083-6.37-6.022-10.452-4.332l-29.56,12.24c-4.09,1.672-6.05,6.343-4.378,10.432
			c0.003,0.008,0.006,0.016,0.01,0.024c1.24,2.991,4.162,4.94,7.4,4.936c1.046,0.001,2.082-0.206,3.048-0.608l29.6-12.24
			C446.731,199.046,448.67,194.366,446.98,190.284z"/>
	</g>
</g>
<g>
	<g>
		<path d="M325.417,69.15c-3.961-1.508-8.41,0.336-10.145,4.202l-12.248,29.6c-1.688,4.08,0.249,8.757,4.328,10.448
			c4.081,1.693,8.762-0.243,10.455-4.325c0-0.001,0.001-0.002,0.001-0.003l12.24-29.6C331.62,75.343,329.546,70.721,325.417,69.15z"
			/>
	</g>
</g>
<g>
	<g>
		<path d="M115.544,140.232L81.6,106.296c-2.992-3.251-8.053-3.461-11.304-0.469c-3.251,2.992-3.461,8.053-0.469,11.304
			c0.15,0.163,0.306,0.319,0.469,0.469l33.936,33.944c3.178,3.069,8.243,2.981,11.312-0.197
			C118.538,148.247,118.538,143.332,115.544,140.232z"/>
	</g>
</g>
<g>
	<g>
		<path d="M56,268H8c-4.418,0-8,3.582-8,8s3.582,8,8,8h48c4.418,0,8-3.582,8-8S60.418,268,56,268z"/>
	</g>
</g>
<g>
	<g>
		<path d="M472,268h-48c-4.418,0-8,3.582-8,8s3.582,8,8,8h48c4.418,0,8-3.582,8-8S476.418,268,472,268z"/>
	</g>
</g>
<g>
	<g>
		<g>
			<polygon points="370.12,153.888 370.116,153.888 370.112,153.888 			"/>
			<path d="M410.172,106.296c-2.992-3.251-8.053-3.461-11.304-0.468c-0.163,0.15-0.319,0.306-0.468,0.468l-33.936,33.936
				c-3.124,3.125-3.123,8.19,0.002,11.314c1.499,1.498,3.531,2.341,5.65,2.342c2.12-0.002,4.153-0.844,5.652-2.344l33.936-33.944
				C412.955,114.608,413.165,109.547,410.172,106.296z"/>
		</g>
	</g>
</g>
<g>
	<g>
		<path d="M472,332h-73.8c31.226-87.371-14.289-183.514-101.66-214.74S113.026,131.549,81.8,218.92
			c-13.067,36.561-13.067,76.519,0,113.08H8c-4.418,0-8,3.582-8,8s3.582,8,8,8h464c4.418,0,8-3.582,8-8S476.418,332,472,332z
			 M381.312,332H98.688c-30.923-78.044,7.277-166.38,85.322-197.302s166.38,7.277,197.302,85.322
			C395.563,255.986,395.563,296.033,381.312,332z"/>
	</g>
</g>
<g>
	<g>
		<path d="M424,364H56c-4.418,0-8,3.582-8,8s3.582,8,8,8h368c4.418,0,8-3.582,8-8S428.418,364,424,364z"/>
	</g>
</g>
<g>
	<g>
		<path d="M384,396H96c-4.418,0-8,3.582-8,8s3.582,8,8,8h288c4.418,0,8-3.582,8-8S388.418,396,384,396z"/>
	</g>
</g>
<g>
	<g>
		<path d="M336,428H144c-4.418,0-8,3.582-8,8s3.582,8,8,8h192c4.418,0,8-3.582,8-8S340.418,428,336,428z"/>
	</g>
</g>
<g>
</g>
<g>
</g>
<g>
</g>
<g>
</g>
<g>
</g>
<g>
</g>
<g>
</g>
<g>
</g>
<g>
</g>
<g>
</g>
<g>
</g>
<g>
</g>
<g>
</g>
<g>
</g>
<g>
</g>
</svg>
