<?xml version="1.0" encoding="iso-8859-1"?>
<!-- Generator: Adobe Illustrator 19.0.0, SVG Export Plug-In . SVG Version: 6.00 Build 0)  -->
<svg version="1.1" id="Capa_1" xmlns="http://www.w3.org/2000/svg" xmlns:xlink="http://www.w3.org/1999/xlink" x="0px" y="0px"
	 viewBox="0 0 483.78 483.78" style="enable-background:new 0 0 483.78 483.78;" xml:space="preserve">
<g>
	<g>
		<path d="M481.672,191.595c-4.407-54.065-49.627-95.663-103.871-95.551c-8.125-0.014-16.223,0.925-24.128,2.8
			C350.824,41.477,302.009-2.718,244.642,0.13c-55.381,2.75-98.865,48.465-98.842,103.914c0,0.536,0,1.072,0,1.6
			c-5.265-1.073-10.626-1.609-16-1.6c-36.146,0.078-67.776,24.318-77.248,59.2c-37.997,11.723-59.297,52.029-47.574,90.026
			c9.315,30.192,37.226,50.783,68.822,50.774h115.056l-16,32h56.48L212.88,483.78l89.864-179.736H377.8
			c2.968,0,5.848-0.088,8.664-0.344C443.712,299.034,486.338,248.843,481.672,191.595z M238.72,396.308l8.504-76.264h-48.48l32-64
			h-64l40-80h78.112l-32,64h64L238.72,396.308z M385.072,287.756c-2.4,0.216-4.8,0.288-7.272,0.288h-67.056l32-64h-64l32-64H196.856
			l-56,112h64l-8,16H73.8c-30.928-0.021-55.983-25.109-55.963-56.037c0.017-25.987,17.91-48.548,43.211-54.483
			c3.059-0.707,5.421-3.138,6.04-6.216c6.104-29.796,32.297-51.208,62.712-51.264c7.49-0.046,14.924,1.291,21.928,3.944
			c4.123,1.587,8.753-0.469,10.34-4.592c0.485-1.26,0.643-2.622,0.46-3.96c-0.503-3.776-0.746-7.582-0.728-11.392
			c0-48.601,39.399-88,88-88s88,39.399,88,88c0,1.728-0.072,3.448-0.152,5.168c-0.195,4.414,3.225,8.151,7.638,8.346
			c1.042,0.046,2.084-0.112,3.065-0.466c9.449-3.376,19.414-5.084,29.448-5.048c48.601-0.088,88.072,39.239,88.16,87.84
			C466.044,245.789,430.827,284.047,385.072,287.756z"/>
	</g>
</g>
<g>
</g>
<g>
</g>
<g>
</g>
<g>
</g>
<g>
</g>
<g>
</g>
<g>
</g>
<g>
</g>
<g>
</g>
<g>
</g>
<g>
</g>
<g>
</g>
<g>
</g>
<g>
</g>
<g>
</g>
</svg>
