<?xml version="1.0" encoding="iso-8859-1"?>
<!-- Generator: Adobe Illustrator 19.0.0, SVG Export Plug-In . SVG Version: 6.00 Build 0)  -->
<svg version="1.1" id="Capa_1" xmlns="http://www.w3.org/2000/svg" xmlns:xlink="http://www.w3.org/1999/xlink" x="0px" y="0px"
	 viewBox="0 0 479.987 479.987" style="enable-background:new 0 0 479.987 479.987;" xml:space="preserve">
<g>
	<g>
		<g>
			<path d="M477.043,176.278c-13.122-55.919-69.09-90.612-125.009-77.491c-2.555-46.413-35.405-85.584-80.664-96.184
				c-1.92-0.456-3.936-0.824-5.536-1.04c-2.752-0.52-5.456-0.872-8.352-1.144c-31.084-2.796-61.784,8.496-83.648,30.768
				c-6.589,6.648-12.197,14.202-16.656,22.432l-0.064,0.088c-0.258,0.397-0.483,0.814-0.672,1.248
				c-3.402,6.268-6.119,12.885-8.104,19.736c-1.721,5.933-2.908,12.008-3.544,18.152c-0.44,3.698-0.649,7.42-0.624,11.144
				c0,0.536,0,1.072,0,1.6c-17.082-3.419-34.812-1.234-50.552,6.232c-3.44,1.687-6.765,3.601-9.952,5.728
				c-1.903,1.229-3.716,2.592-5.424,4.08c-3.009,2.369-5.838,4.957-8.464,7.744c-2.589,2.714-4.964,5.624-7.104,8.704
				c-5.36,7.616-9.338,16.117-11.752,25.112c-3.518,1.07-6.936,2.443-10.216,4.104c-5.826,2.846-11.245,6.46-16.112,10.744
				c-3.502,3.033-6.679,6.422-9.48,10.112C5.39,200.688,0.13,216.117,0.17,231.987c0.044,39.746,32.254,71.956,72,72h304
				c2.968,0,5.848-0.088,8.664-0.344c4.956-0.432,9.875-1.22,14.718-2.357C455.471,288.165,490.165,232.197,477.043,176.278z
				 M383.435,287.699c-2.4,0.216-4.792,0.288-7.264,0.288h-304c-30.911-0.04-55.96-25.089-56-56
				c-0.019-12.366,4.095-24.384,11.688-34.144c2.164-2.846,4.621-5.457,7.328-7.792c3.839-3.376,8.115-6.22,12.712-8.456
				c3.691-1.838,7.588-3.229,11.608-4.144c3.021-0.731,5.345-3.146,5.96-6.192c1.752-8.601,5.257-16.749,10.296-23.936
				c1.685-2.443,3.558-4.751,5.6-6.904c2.233-2.358,4.64-4.546,7.2-6.544c1.264-1.09,2.6-2.092,4-3c2.564-1.713,5.236-3.257,8-4.624
				c8.62-4.121,18.053-6.261,27.608-6.264c7.487-0.046,14.919,1.291,21.92,3.944c1.26,0.487,2.624,0.646,3.962,0.464
				c4.378-0.597,7.443-4.63,6.846-9.008c-0.506-3.779-0.749-7.588-0.728-11.4c-0.019-3.101,0.152-6.2,0.512-9.28
				c0.545-5.252,1.551-10.445,3.008-15.52c1.724-5.931,4.099-11.654,7.08-17.064l0.184-0.336l0.264-0.496
				c3.751-6.937,8.473-13.303,14.024-18.904c16.541-16.95,39.245-26.474,62.928-26.4c2.656,0,5.312,0.152,7.872,0.36
				c2.32,0.2,4.552,0.504,7.2,1c1.504,0.208,3.008,0.48,4.52,0.84c39.911,9.323,68.209,44.815,68.408,85.8
				c0,1.728-0.08,3.44-0.152,5.184c-0.044,1.037,0.115,2.072,0.466,3.049c1.497,4.157,6.081,6.313,10.238,4.815
				c9.45-3.376,19.414-5.084,29.448-5.048c45.902-0.079,84.154,35.136,87.864,80.888
				C467.962,241.317,431.877,283.771,383.435,287.699z"/>
			<path d="M295.65,403.979l0,0.008l-27.704,7.424l-19.776-11.424l19.776-11.416l27.704,7.424c4.273,1.122,8.647-1.433,9.769-5.707
				c1.114-4.245-1.399-8.594-5.633-9.749l-12.248-3.28l10.984-6.344c3.811-2.235,5.089-7.136,2.854-10.948
				c-2.214-3.775-7.05-5.071-10.854-2.908l-10.984,6.344l3.28-12.248c1.144-4.268-1.388-8.656-5.656-9.8
				c-4.268-1.144-8.656,1.388-9.8,5.656l-7.416,27.704l-19.776,11.416v-22.832l20.28-20.28c3.178-3.07,3.266-8.134,0.196-11.312
				c-3.07-3.178-8.134-3.266-11.312-0.196c-0.066,0.064-0.132,0.13-0.196,0.196l-8.968,8.968v-12.688c0-4.418-3.582-8-8-8
				s-8,3.582-8,8v12.688l-8.968-8.968c-3.069-3.178-8.134-3.266-11.312-0.196c-3.178,3.07-3.266,8.134-0.196,11.312
				c0.064,0.067,0.13,0.132,0.196,0.196l20.28,20.28v22.832l-19.776-11.416l-7.424-27.704c-1.144-4.268-5.532-6.8-9.8-5.656
				s-6.8,5.532-5.656,9.8l3.28,12.248l-10.984-6.344c-3.841-2.183-8.725-0.839-10.908,3.002c-2.163,3.805-0.867,8.641,2.908,10.854
				l10.984,6.344l-12.248,3.28c-4.273,1.122-6.828,5.496-5.706,9.769c1.122,4.273,5.496,6.828,9.769,5.706
				c0.024-0.006,0.049-0.013,0.073-0.02l27.704-7.424l19.784,11.416l-19.776,11.416l-27.704-7.416
				c-4.273-1.122-8.647,1.433-9.769,5.706c-1.114,4.245,1.399,8.595,5.633,9.75l12.248,3.28l-10.984,6.344
				c-3.841,2.183-5.185,7.067-3.002,10.908c2.183,3.841,7.067,5.185,10.908,3.002c0.031-0.018,0.062-0.036,0.093-0.054l10.984-6.344
				l-3.28,12.248c-1.145,4.267,1.387,8.655,5.654,9.799c0.001,0,0.001,0,0.002,0c0.678,0.184,1.378,0.276,2.08,0.272
				c3.618-0.003,6.783-2.434,7.72-5.928l7.416-27.704l19.776-11.424v22.832l-20.28,20.28c-3.178,3.07-3.266,8.134-0.196,11.312
				c3.07,3.178,8.134,3.266,11.312,0.196c0.067-0.064,0.132-0.13,0.196-0.196l8.968-8.968v12.688c0,4.418,3.582,8,8,8s8-3.582,8-8
				v-12.688l8.968,8.968c3.07,3.178,8.134,3.266,11.312,0.196c3.178-3.07,3.266-8.134,0.196-11.312
				c-0.064-0.066-0.13-0.132-0.196-0.196l-20.28-20.28v-22.832l19.776,11.416l7.416,27.704c0.937,3.494,4.102,5.925,7.72,5.928
				c0.702,0.004,1.402-0.088,2.08-0.272c4.268-1.144,6.8-5.53,5.656-9.798c0-0.001,0-0.001,0-0.002l-3.28-12.248l10.984,6.344
				c3.811,2.235,8.713,0.957,10.948-2.854c2.235-3.811,0.957-8.713-2.854-10.948c-0.031-0.018-0.062-0.036-0.093-0.054
				l-10.984-6.344l12.248-3.28c4.263-1.163,6.776-5.56,5.613-9.823C304.245,405.378,299.895,402.865,295.65,403.979z"/>
		</g>
	</g>
</g>
<g>
</g>
<g>
</g>
<g>
</g>
<g>
</g>
<g>
</g>
<g>
</g>
<g>
</g>
<g>
</g>
<g>
</g>
<g>
</g>
<g>
</g>
<g>
</g>
<g>
</g>
<g>
</g>
<g>
</g>
</svg>
