<?xml version="1.0" encoding="iso-8859-1"?>
<!-- Generator: Adobe Illustrator 19.0.0, SVG Export Plug-In . SVG Version: 6.00 Build 0)  -->
<svg version="1.1" id="Capa_1" xmlns="http://www.w3.org/2000/svg" xmlns:xlink="http://www.w3.org/1999/xlink" x="0px" y="0px"
	 viewBox="0 0 480.245 480.245" style="enable-background:new 0 0 480.245 480.245;" xml:space="preserve">
<g>
	<g>
		<path d="M479.896,242.017c-4.407-54.065-49.627-95.663-103.871-95.551c-8.125-0.014-16.223,0.925-24.128,2.8
			c-2.825-57.324-51.586-101.504-108.91-98.678c-24.448,1.205-47.686,11.001-65.618,27.662
			C130.97,64.147,81.923,90.328,67.82,136.727c-4.617,15.188-5.03,31.344-1.195,46.748c-7.401,8.799-12.802,19.101-15.832,30.192
			C12.796,225.39-8.504,265.696,3.219,303.693c9.313,30.186,37.215,50.776,68.806,50.774h304c2.968,0,5.848-0.088,8.664-0.344
			C441.937,349.456,484.562,299.265,479.896,242.017z M152.025,90.467c4.368-0.002,8.727,0.389,13.024,1.168
			c-0.96,1.264-1.808,2.584-2.704,3.88c-0.56,0.8-1.16,1.6-1.696,2.4c-1.68,2.592-3.256,5.24-4.696,7.96
			c-0.184,0.352-0.328,0.72-0.512,1.072c-1.232,2.4-2.368,4.843-3.408,7.328c-0.4,0.96-0.736,1.936-1.112,2.912
			c-0.736,1.936-1.44,3.88-2.056,5.856c-0.352,1.112-0.664,2.224-0.968,3.344c-0.533,1.92-1.013,3.861-1.44,5.824
			c-0.24,1.128-0.488,2.256-0.688,3.392c-0.384,2.104-0.672,4.224-0.928,6.352c-0.12,1-0.272,1.992-0.36,3
			c-0.28,3.168-0.456,6.312-0.456,9.512c0,0.536,0,1.072,0,1.6c-5.265-1.073-10.626-1.609-16-1.6c-2.512,0-5.008,0.152-7.496,0.392
			c-0.8,0.072-1.52,0.184-2.28,0.28c-1.76,0.216-3.512,0.488-5.24,0.8c-0.8,0.152-1.6,0.312-2.4,0.496
			c-1.84,0.408-3.664,0.904-5.472,1.448c-0.584,0.168-1.168,0.312-1.744,0.496c-2.32,0.76-4.608,1.6-6.848,2.584
			c-0.608,0.256-1.184,0.56-1.784,0.84c-1.648,0.752-3.272,1.552-4.872,2.4c-0.8,0.416-1.536,0.864-2.296,1.304
			c-1.44,0.848-2.856,1.752-4.24,2.688c-0.696,0.464-1.392,0.92-2.072,1.408c-0.264,0.192-0.544,0.36-0.8,0.552
			c-0.286-2.553-0.438-5.119-0.456-7.688C80.069,122.72,112.279,90.511,152.025,90.467z M383.297,338.179
			c-2.4,0.216-4.8,0.288-7.272,0.288h-304c-30.928-0.021-55.983-25.109-55.963-56.037c0.017-25.987,17.91-48.548,43.211-54.483
			c3.047-0.705,5.403-3.121,6.032-6.184c6.114-29.798,32.301-51.216,62.72-51.296c7.49-0.046,14.924,1.291,21.928,3.944
			c4.123,1.587,8.753-0.469,10.34-4.592c0.485-1.26,0.643-2.622,0.46-3.96c-0.503-3.776-0.746-7.582-0.728-11.392
			c-0.014-5.745,0.522-11.477,1.6-17.12c8.14-41.251,44.354-70.96,86.4-70.88c48.577,0.057,87.943,39.423,88,88
			c0,1.728-0.072,3.448-0.152,5.168c-0.195,4.414,3.225,8.151,7.638,8.346c1.042,0.046,2.084-0.112,3.065-0.466
			c9.449-3.376,19.414-5.084,29.448-5.048c48.601-0.088,88.072,39.239,88.16,87.84C464.268,296.211,429.052,334.469,383.297,338.179
			z"/>
	</g>
</g>
<g>
	<g>
		<path d="M152.025,10.467c-4.418,0-8,3.582-8,8v32c0,4.418,3.582,8,8,8s8-3.582,8-8v-32
			C160.025,14.048,156.443,10.467,152.025,10.467z"/>
	</g>
</g>
<g>
	<g>
		<path d="M115.329,57.811l-12.248-29.6c-1.735-3.867-6.184-5.71-10.145-4.202c-4.129,1.572-6.203,6.193-4.631,10.322l12.24,29.6
			c1.24,2.991,4.162,4.94,7.4,4.936c1.045-0.001,2.081-0.207,3.047-0.607C115.075,66.572,117.017,61.894,115.329,57.811z"/>
	</g>
</g>
<g>
	<g>
		<path d="M76.825,81.619L54.201,58.987c-0.064-0.067-0.13-0.132-0.196-0.196c-3.178-3.069-8.242-2.982-11.312,0.196
			c-3.069,3.178-2.982,8.242,0.196,11.312l22.632,22.624c1.5,1.5,3.534,2.344,5.656,2.344l-0.008,0.008
			c2.121,0,4.155-0.843,5.654-2.342C79.948,89.809,79.948,84.743,76.825,81.619z"/>
	</g>
</g>
<g>
	<g>
		<path d="M50.425,118.379l-29.6-12.248c-4.082-1.701-8.771,0.229-10.472,4.312c-1.701,4.082,0.229,8.771,4.312,10.472l29.6,12.248
			c0.969,0.402,2.007,0.609,3.056,0.608h0.04c3.238,0.002,6.159-1.949,7.397-4.941C56.447,124.747,54.507,120.068,50.425,118.379z"
			/>
	</g>
</g>
<g>
	<g>
		<path d="M40.025,162.467h-32c-4.418,0-8,3.582-8,8s3.582,8,8,8h32c4.418,0,8-3.582,8-8S44.443,162.467,40.025,162.467z"/>
	</g>
</g>
<g>
	<g>
		<path d="M240.993,377.695c-3.07-3.178-8.134-3.266-11.312-0.196l-22.624,22.624c-1.499,1.5-2.342,3.534-2.342,5.654
			c-0.001,4.418,3.58,8.001,7.998,8.002c2.122,0,4.156-0.844,5.656-2.344l22.624-22.624
			C243.987,385.71,243.987,380.795,240.993,377.695z"/>
	</g>
</g>
<g>
	<g>
		<path d="M192.993,377.302c-3.178-3.07-8.242-2.982-11.312,0.196l-22.624,22.624c-1.499,1.5-2.342,3.534-2.342,5.654
			c-0.001,4.418,3.58,8.001,7.998,8.002c2.122,0,4.156-0.844,5.656-2.344l22.624-22.624c0.067-0.064,0.132-0.13,0.196-0.196
			C196.259,385.436,196.171,380.372,192.993,377.302z"/>
	</g>
</g>
<g>
	<g>
		<path d="M144.993,377.302c-3.178-3.07-8.242-2.982-11.312,0.196l-22.624,22.624c-1.499,1.5-2.342,3.534-2.342,5.654
			c-0.001,4.418,3.58,8.001,7.998,8.002c2.122,0,4.156-0.844,5.656-2.344l22.624-22.624c0.067-0.064,0.132-0.13,0.196-0.196
			C148.259,385.436,148.171,380.372,144.993,377.302z"/>
	</g>
</g>
<g>
	<g>
		<path d="M288.993,377.695c-3.07-3.178-8.134-3.266-11.312-0.196l-22.624,22.624c-1.499,1.5-2.342,3.534-2.342,5.654
			c-0.001,4.418,3.58,8.001,7.998,8.002c2.122,0,4.156-0.844,5.656-2.344l22.624-22.624
			C291.987,385.71,291.987,380.795,288.993,377.695z"/>
	</g>
</g>
<g>
	<g>
		<path d="M336.993,377.695c-3.07-3.178-8.134-3.266-11.312-0.196l-22.624,22.624c-1.499,1.5-2.342,3.534-2.342,5.654
			c-0.001,4.418,3.58,8.001,7.998,8.002c2.122,0,4.156-0.844,5.656-2.344l22.624-22.624
			C339.987,385.71,339.987,380.795,336.993,377.695z"/>
	</g>
</g>
<g>
	<g>
		<path d="M184.993,433.302c-3.178-3.07-8.242-2.982-11.312,0.196l-22.624,22.624c-1.499,1.5-2.342,3.534-2.342,5.654
			c-0.001,4.418,3.58,8.001,7.998,8.002c2.122,0,4.156-0.844,5.656-2.344l22.624-22.624c0.067-0.064,0.132-0.13,0.196-0.196
			C188.259,441.436,188.171,436.372,184.993,433.302z"/>
	</g>
</g>
<g>
	<g>
		<path d="M136.993,433.302c-3.178-3.07-8.242-2.982-11.312,0.196l-22.624,22.624c-1.499,1.5-2.342,3.534-2.342,5.654
			c-0.001,4.418,3.58,8.001,7.998,8.002c2.122,0,4.156-0.844,5.656-2.344l22.624-22.624c0.067-0.064,0.132-0.13,0.196-0.196
			C140.259,441.436,140.171,436.372,136.993,433.302z"/>
	</g>
</g>
<g>
	<g>
		<path d="M88.993,433.302c-3.178-3.07-8.242-2.982-11.312,0.196l-22.624,22.624c-1.499,1.5-2.342,3.534-2.342,5.654
			c-0.001,4.418,3.58,8.001,7.998,8.002c2.122,0,4.156-0.844,5.656-2.344l22.624-22.624c0.067-0.064,0.132-0.13,0.196-0.196
			C92.259,441.436,92.171,436.372,88.993,433.302z"/>
	</g>
</g>
<g>
	<g>
		<path d="M232.993,433.302c-3.178-3.07-8.242-2.982-11.312,0.196l-22.624,22.624c-1.499,1.5-2.342,3.534-2.342,5.654
			c-0.001,4.418,3.58,8.001,7.998,8.002c2.122,0,4.156-0.844,5.656-2.344l22.624-22.624c0.067-0.064,0.132-0.13,0.196-0.196
			C236.259,441.436,236.171,436.372,232.993,433.302z"/>
	</g>
</g>
<g>
	<g>
		<path d="M280.993,433.695c-3.07-3.178-8.134-3.266-11.312-0.196l-22.624,22.624c-1.499,1.5-2.342,3.534-2.342,5.654
			c-0.001,4.418,3.58,8.001,7.998,8.002c2.122,0,4.156-0.844,5.656-2.344l22.624-22.624
			C283.987,441.71,283.987,436.795,280.993,433.695z"/>
	</g>
</g>
<g>
</g>
<g>
</g>
<g>
</g>
<g>
</g>
<g>
</g>
<g>
</g>
<g>
</g>
<g>
</g>
<g>
</g>
<g>
</g>
<g>
</g>
<g>
</g>
<g>
</g>
<g>
</g>
<g>
</g>
</svg>
