<?xml version="1.0" encoding="iso-8859-1"?>
<!-- Generator: Adobe Illustrator 19.0.0, SVG Export Plug-In . SVG Version: 6.00 Build 0)  -->
<svg version="1.1" id="Capa_1" xmlns="http://www.w3.org/2000/svg" xmlns:xlink="http://www.w3.org/1999/xlink" x="0px" y="0px"
	 viewBox="0 0 480.018 480.018" style="enable-background:new 0 0 480.018 480.018;" xml:space="preserve">
<g>
	<g>
		<path d="M479.571,287.21c-4.515-44.976-42.369-79.217-87.571-79.211c-5.854-0.01-11.694,0.569-17.432,1.728
			c-7.836-38.94-45.756-64.154-84.695-56.318c-12.232,2.462-23.613,8.063-33.025,16.254
			c-34.454-66.742-116.49-92.918-183.232-58.464C28.418,134.531,0.018,181.134,0,231.999h16
			c-0.032-66.248,53.646-119.978,119.894-120.01c47.157-0.023,89.953,27.588,109.37,70.562c-4.189,5.896-7.454,12.398-9.68,19.28
			c-16.559-54.999-74.569-86.16-129.567-69.601C62.011,145.479,31.918,186.042,32,231.999h16
			c0.003-48.601,39.403-87.998,88.005-87.995c36.592,0.002,69.365,22.648,82.307,56.875c-5.883-0.925-11.868-1.014-17.776-0.264
			c-17.249-35.731-60.197-50.713-95.927-33.465C79.729,179.16,63.941,204.373,64,231.999h16
			c0.047-30.928,25.157-55.962,56.085-55.915c20.119,0.031,38.676,10.852,48.611,28.347c-4.986,1.992-9.699,4.61-14.024,7.792
			c-10.883-19.184-35.257-25.914-54.441-15.031c-12.526,7.106-20.256,20.406-20.231,34.807h16
			c0.038-13.255,10.814-23.969,24.069-23.931c9.963,0.029,18.872,6.209,22.387,15.531c-1.016,1.248-1.96,2.504-2.8,3.736
			c-6.661,9.334-10.635,20.317-11.488,31.752c-0.08,1.6-0.168,3.248-0.168,4.912c-0.001,2.838,0.183,5.674,0.552,8.488
			c-11.883,1.524-22.934,6.916-31.448,15.344c-9.32,8.952-15.227,20.874-16.704,33.712c-0.284,2.14-0.417,4.297-0.4,6.456
			c0.061,12.841,4.471,25.283,12.512,35.296c10.629,13.11,26.61,20.719,43.488,20.704h240c2.96,0,5.84-0.168,8.8-0.44
			C449.158,378.705,484.425,335.568,479.571,287.21z M399.28,367.631c-2.4,0.216-4.8,0.368-7.28,0.368H152
			c-12.059,0.003-23.475-5.435-31.072-14.8c-5.722-7.159-8.867-16.036-8.928-25.2c-0.013-1.492,0.078-2.984,0.272-4.464
			c1.041-9.237,5.287-17.818,12-24.248c7.379-7.293,17.354-11.353,27.728-11.288h0.624c0.266-0.015,0.534-0.015,0.8,0
			c4.393,0.475,8.338-2.702,8.813-7.094c0.114-1.054,0.017-2.121-0.285-3.138c-1.307-4.472-1.964-9.109-1.952-13.768
			c0-1.368,0.072-2.744,0.136-3.856c0.63-8.532,3.621-16.72,8.64-23.648c1.325-1.937,2.81-3.76,4.44-5.448
			c6.483-6.958,14.924-11.786,24.208-13.848l2.104-0.44c9.36-1.77,19.038-0.617,27.72,3.304c0.294,0.178,0.602,0.333,0.92,0.464
			c2.588,1.11,5.046,2.502,7.328,4.152c3.557,2.621,8.565,1.862,11.186-1.695c0.865-1.175,1.393-2.564,1.526-4.017
			c1.04-11.401,5.549-22.209,12.92-30.968c0.464-0.568,0.904-1.112,1.368-1.6c20.774-22.912,56.189-24.645,79.101-3.87
			c10.742,9.74,17.287,23.267,18.259,37.734c0.289,4.409,4.097,7.749,8.506,7.46c0.669-0.044,1.329-0.172,1.966-0.38
			c7.003-2.246,14.317-3.375,21.672-3.344c39.765-0.005,72.004,32.226,72.01,71.99C464.015,332.942,436.044,363.9,399.28,367.631z"
			/>
	</g>
</g>
<g>
</g>
<g>
</g>
<g>
</g>
<g>
</g>
<g>
</g>
<g>
</g>
<g>
</g>
<g>
</g>
<g>
</g>
<g>
</g>
<g>
</g>
<g>
</g>
<g>
</g>
<g>
</g>
<g>
</g>
</svg>
