<?xml version="1.0" encoding="iso-8859-1"?>
<!-- Generator: Adobe Illustrator 19.0.0, SVG Export Plug-In . SVG Version: 6.00 Build 0)  -->
<svg version="1.1" id="Capa_1" xmlns="http://www.w3.org/2000/svg" xmlns:xlink="http://www.w3.org/1999/xlink" x="0px" y="0px"
	 viewBox="0 0 480 480" style="enable-background:new 0 0 480 480;" xml:space="preserve">
<g>
	<g>
		<g>
			<path d="M240,120C107.452,120,0,227.452,0,360h16c0-123.712,100.288-224,224-224s224,100.288,224,224h16
				C480,227.452,372.548,120,240,120z"/>
			<path d="M240,152c-114.875,0-208,93.125-208,208h16c0-106.039,85.961-192,192-192s192,85.961,192,192h16
				C448,245.125,354.875,152,240,152z"/>
			<path d="M240,184c-97.202,0-176,78.798-176,176h16c0-88.366,71.634-160,160-160s160,71.634,160,160h16
				C416,262.798,337.202,184,240,184z"/>
			<path d="M240,216c-79.529,0-144,64.471-144,144h16c0-70.692,57.308-128,128-128s128,57.308,128,128h16
				C384,280.471,319.529,216,240,216z"/>
			<path d="M240,248c-61.856,0-112,50.144-112,112h16c0-53.019,42.981-96,96-96s96,42.981,96,96h16C352,298.144,301.856,248,240,248
				z"/>
			<path d="M240,280c-44.183,0-80,35.817-80,80h16c0-35.346,28.654-64,64-64c35.346,0,64,28.654,64,64h16
				C320,315.817,284.183,280,240,280z"/>
		</g>
	</g>
</g>
<g>
</g>
<g>
</g>
<g>
</g>
<g>
</g>
<g>
</g>
<g>
</g>
<g>
</g>
<g>
</g>
<g>
</g>
<g>
</g>
<g>
</g>
<g>
</g>
<g>
</g>
<g>
</g>
<g>
</g>
</svg>
