<?xml version="1.0" encoding="iso-8859-1"?>
<!-- Generator: Adobe Illustrator 19.0.0, SVG Export Plug-In . SVG Version: 6.00 Build 0)  -->
<svg version="1.1" id="Capa_1" xmlns="http://www.w3.org/2000/svg" xmlns:xlink="http://www.w3.org/1999/xlink" x="0px" y="0px"
	 viewBox="0 0 479.898 479.898" style="enable-background:new 0 0 479.898 479.898;" xml:space="preserve">
<g>
	<g>
		<path d="M479.898,255.953c0.08-110.377-89.334-199.921-199.711-200.001c-56.4-0.041-110.191,23.75-148.105,65.505
			c-3.992-0.956-8.079-1.461-12.184-1.504c-30.985,0.058-56.057,25.223-56,56.208c0.005,2.828,0.224,5.652,0.656,8.448
			c-30.566-4.72-59.17,16.233-63.89,46.798c-4.72,30.566,16.233,59.17,46.798,63.89c2.791,0.431,5.611,0.65,8.436,0.656h176
			c7.142-0.002,14.149-1.937,20.28-5.6c12.194-7.173,19.692-20.253,19.72-34.4c0-1.304-0.072-2.52-0.2-4.4
			c-1.989-17.242-14.806-31.268-31.8-34.8c21.585-22.082,56.985-22.484,79.066-0.899c10.196,9.967,16.199,23.453,16.782,37.699
			c-14.67,6.839-25.581,19.796-29.824,35.416c-3.297-0.684-6.656-1.025-10.024-1.016c-1.189-0.031-2.379,0.025-3.56,0.168
			c-14.023,0.987-26.9,8.102-35.2,19.448c-4.715,6.477-7.74,14.027-8.8,21.968c-0.293,2.126-0.44,4.27-0.44,6.416
			c-0.001,2.681,0.224,5.357,0.672,8c-5.666-0.118-11.29,1.002-16.48,3.28c-13.359,5.815-22.537,18.392-24,32.888
			c-0.088,1.304-0.16,2.52-0.16,3.824c0.057,22.068,17.932,39.943,40,40h175.968c30.875,0.051,55.945-24.937,55.996-55.812
			c0.023-13.906-5.138-27.322-14.476-37.628C474.993,306.817,479.909,281.504,479.898,255.953z M241.37,233.945
			c7.894,3.374,13.385,10.707,14.4,19.232c0.064,0.944,0.128,1.824,0.128,2.776c-0.018,8.501-4.53,16.358-11.864,20.656
			c-3.663,2.205-7.861,3.362-12.136,3.344h-176c-22.091,0-40-17.909-40-40s17.909-40,40-40c5.963-0.031,11.853,1.307,17.216,3.912
			c3.972,1.935,8.761,0.285,10.696-3.687c1.078-2.212,1.078-4.797,0-7.009c-2.605-5.363-3.943-11.253-3.912-17.216
			c0.026-22.08,17.92-39.974,40-40c4.236-0.03,8.447,0.655,12.456,2.024c8.707,2.805,16.177,8.534,21.144,16.216
			c2.984,4.673,4.985,9.904,5.88,15.376c0.162,0.772,0.266,1.556,0.312,2.344c0.285,4.409,4.091,7.752,8.5,7.466
			c0.958-0.062,1.897-0.296,2.772-0.69c4.068-1.824,8.478-2.756,12.936-2.736c0.84-0.031,1.681,0.017,2.512,0.144
			c9.266,0.676,17.768,5.384,23.256,12.88c3.986,5.53,6.163,12.159,6.232,18.976c0,1.3-0.08,2.598-0.24,3.888
			c-0.46,3.839-1.632,7.559-3.456,10.968c-2.09,3.893-0.628,8.743,3.265,10.832c2.183,1.172,4.785,1.266,7.047,0.256
			c0.882-0.395,1.801-0.7,2.744-0.912c0.272-0.072,0.496-0.144,0.8-0.208C231.143,231.379,236.556,231.792,241.37,233.945z
			 M413.946,289.553c-0.392-1.456-0.8-2.896-1.344-4.304c2.198-9.61,3.304-19.438,3.296-29.296
			c0.132-74.978-60.543-135.867-135.521-135.999c-36.18-0.064-70.89,14.317-96.423,39.951c-3.403-0.001-6.796,0.367-10.12,1.096
			c-0.689-2.436-1.541-4.823-2.552-7.144c-0.216-0.496-0.424-0.984-0.648-1.472c-0.224-0.488-0.376-0.92-0.592-1.368
			c58.002-60.687,154.219-62.863,214.906-4.86c44.726,42.748,59.079,108.339,36.294,165.86c-1.998,0.092-3.99,0.289-5.968,0.592
			c0.43-2.865,0.639-5.759,0.624-8.656C415.877,299.089,415.221,294.248,413.946,289.553z M399.898,255.953
			c0,2.856-0.104,5.704-0.296,8.504c-0.168-0.168-0.368-0.312-0.544-0.48c-0.8-0.8-1.68-1.544-2.544-2.296
			c-0.368-0.32-0.712-0.664-1.088-0.976c-0.376-0.312-0.6-0.496-0.912-0.736c-0.72-0.568-1.48-1.08-2.232-1.6
			c-0.536-0.384-1.064-0.8-1.6-1.136c-0.368-0.248-0.728-0.504-1.104-0.744c-0.6-0.368-1.224-0.696-1.832-1.04
			c-0.744-0.432-1.504-0.848-2.272-1.248c-0.416-0.216-0.8-0.464-1.24-0.672l-0.456-0.208
			c-1.319-57.294-48.834-102.671-106.129-101.352c-21.948,0.505-43.171,7.959-60.615,21.288c-1.803-1.751-3.742-3.356-5.8-4.8
			c-2.345-1.58-4.82-2.955-7.4-4.112c-0.28-0.128-0.528-0.328-0.8-0.448c50.781-42.504,126.403-35.794,168.906,14.986
			C390.025,200.49,399.924,227.776,399.898,255.953z M286.73,184.241c-2.229-0.192-4.507-0.288-6.832-0.288
			c-17.87,0.002-35.099,6.658-48.328,18.672c0-0.352-0.088-0.712-0.144-1.064c-0.35-2.411-0.885-4.791-1.6-7.12
			c-0.2-0.68-0.432-1.336-0.664-2c-0.604-1.768-1.312-3.499-2.12-5.184c-0.192-0.4-0.304-0.8-0.504-1.232
			c38.573-29.494,93.752-22.134,123.246,16.439c10.18,13.314,16.343,29.261,17.762,45.961c-0.256,0-0.52,0-0.8-0.048
			c-1.464-0.176-2.968-0.272-4.472-0.336c-0.48,0-0.944-0.064-1.432-0.072c-0.336,0-0.664-0.048-1.008-0.048h-0.104
			c-2.769,0.004-5.533,0.21-8.272,0.616C347.898,214.449,320.842,187.572,286.73,184.241z M456.778,390.593
			c-7.441,10.838-19.733,17.328-32.88,17.36h-176c-4.3,0.015-8.522-1.156-12.2-3.384c-7.305-4.299-11.793-12.14-11.8-20.616
			c0-0.952,0.064-1.832,0.112-2.648c0.984-8.588,6.499-15.988,14.448-19.384c2.979-1.293,6.192-1.963,9.44-1.968
			c2.167,0.031,4.32,0.354,6.4,0.96c1.015,0.227,2.004,0.557,2.952,0.984c4.034,1.802,8.765-0.007,10.568-4.041
			c1.011-2.262,0.916-4.865-0.256-7.047c-2.428-4.574-3.686-9.678-3.664-14.856c0.016-1.448,0.126-2.894,0.328-4.328
			c0.717-5.287,2.738-10.312,5.88-14.624c2.086-2.851,4.633-5.333,7.536-7.344c4.882-3.35,10.586-5.303,16.496-5.648
			c0.318-0.048,0.639-0.067,0.96-0.056c4.731-0.058,9.421,0.877,13.768,2.744c4.028,1.816,8.765,0.024,10.581-4.004
			c0.395-0.875,0.629-1.814,0.691-2.772c0.059-0.904,0.184-1.802,0.376-2.688c0.903-5.338,2.873-10.44,5.792-15
			c4.939-7.611,12.328-13.309,20.944-16.152c0.664-0.224,1.352-0.376,2.032-0.568c1.072-0.312,2.152-0.6,3.272-0.8
			c0.984-0.176,1.976-0.288,2.968-0.4c0.992-0.112,2.064-0.208,3.128-0.24c0.728,0,1.448,0,2.168,0
			c4.585,0.108,9.116,1.013,13.392,2.672c1.49,0.597,2.94,1.286,4.344,2.064c0.992,0.528,2.024,1.008,2.968,1.6
			c1.286,0.874,2.52,1.822,3.696,2.84c0.88,0.728,1.824,1.376,2.632,2.176c1.33,1.351,2.56,2.798,3.68,4.328
			c0.464,0.6,1.024,1.128,1.456,1.76c2.703,3.938,4.631,8.356,5.68,13.016c0.24,1,0.432,2.032,0.608,3.08
			c0.378,2.094,0.587,4.216,0.624,6.344c0.031,5.962-1.307,11.853-3.912,17.216c-1.512,3.07-0.904,6.761,1.512,9.184
			c0.693,0.679,1.507,1.221,2.4,1.6c0.261,0.105,0.528,0.193,0.8,0.264c0.638,0.218,1.303,0.35,1.976,0.392
			c0.168,0,0.32,0.096,0.488,0.096c0.168,0,0.248-0.08,0.368-0.088c1.084-0.022,2.151-0.268,3.136-0.72
			c5.366-2.618,11.262-3.968,17.232-3.944c2.479,0.019,4.951,0.268,7.384,0.744l1.24,0.248c2.216,0.488,4.386,1.162,6.488,2.016
			c0.44,0.184,0.856,0.408,1.288,0.6c1.852,0.831,3.639,1.802,5.344,2.904c0.272,0.176,0.56,0.328,0.8,0.512
			C464.654,347.481,469.282,372.381,456.778,390.593z M452.474,319.809c-0.208-0.12-0.44-0.2-0.656-0.328
			c-4.161-2.399-8.613-4.252-13.248-5.512c-0.28-0.08-0.536-0.2-0.8-0.272l-0.264-0.056
			c31.981-86.995-12.617-183.443-99.611-215.424c-61.676-22.673-130.91-7.265-177.149,39.424c-0.184-0.192-0.4-0.344-0.584-0.536
			c-1.703-1.778-3.523-3.441-5.448-4.976c-0.312-0.248-0.592-0.536-0.912-0.8c-1.788-1.372-3.658-2.633-5.6-3.776
			c34.602-35.539,82.095-55.589,131.696-55.6c101.62-0.006,184.005,82.368,184.012,183.988
			C463.911,277.74,460.039,299.365,452.474,319.809z"/>
	</g>
</g>
<g>
</g>
<g>
</g>
<g>
</g>
<g>
</g>
<g>
</g>
<g>
</g>
<g>
</g>
<g>
</g>
<g>
</g>
<g>
</g>
<g>
</g>
<g>
</g>
<g>
</g>
<g>
</g>
<g>
</g>
</svg>
