<?xml version="1.0" encoding="iso-8859-1"?>
<!-- Generator: Adobe Illustrator 19.0.0, SVG Export Plug-In . SVG Version: 6.00 Build 0)  -->
<svg version="1.1" id="Capa_1" xmlns="http://www.w3.org/2000/svg" xmlns:xlink="http://www.w3.org/1999/xlink" x="0px" y="0px"
	 viewBox="0 0 479.647 479.647" style="enable-background:new 0 0 479.647 479.647;" xml:space="preserve">
<g>
	<g>
		<g>
			<path d="M476.873,178.449c-13.122-55.919-69.09-90.612-125.009-77.491C349.312,54.544,316.46,15.371,271.2,4.774
				c-1.928-0.456-3.92-0.824-5.52-1.032c-2.736-0.528-5.464-0.888-8.384-1.16c-31.074-2.745-61.749,8.543-83.632,30.776
				c-6.61,6.677-12.23,14.266-16.688,22.536v-0.056l-0.064,0.096c-0.24,0.372-0.452,0.763-0.632,1.168
				c-3.403,6.275-6.122,12.897-8.112,19.752c-1.722,5.935-2.908,12.013-3.544,18.16c-0.44,3.698-0.648,7.42-0.624,11.144
				c0,0.536,0,1.072,0,1.6c-17.079-3.421-34.807-1.235-50.544,6.232c-3.447,1.687-6.777,3.604-9.968,5.736
				c-1.901,1.226-3.711,2.587-5.416,4.072c-3.011,2.367-5.84,4.955-8.464,7.744c-2.589,2.714-4.964,5.624-7.104,8.704
				c-5.357,7.618-9.335,16.118-11.752,25.112c-3.515,1.071-6.93,2.444-10.208,4.104c-5.835,2.842-11.26,6.459-16.128,10.752
				c-3.5,3.03-6.674,6.416-9.472,10.104C5.216,202.858-0.044,218.288,0,234.158c0.044,39.746,32.254,71.956,72,72h304
				c2.968,0,5.848-0.088,8.664-0.344c4.956-0.432,9.875-1.22,14.718-2.357C455.301,290.336,489.995,234.368,476.873,178.449z
				 M383.264,289.87c-2.4,0.224-4.792,0.288-7.264,0.288H72c-30.913-0.035-55.965-25.087-56-56
				c-0.019-12.366,4.095-24.384,11.688-34.144c2.168-2.845,4.624-5.459,7.328-7.8c3.841-3.374,8.12-6.216,12.72-8.448
				c3.689-1.837,7.583-3.231,11.6-4.152c3.019-0.73,5.342-3.141,5.96-6.184c1.749-8.602,5.254-16.751,10.296-23.936
				c1.685-2.443,3.558-4.751,5.6-6.904c2.233-2.361,4.64-4.551,7.2-6.552c1.262-1.086,2.599-2.083,4-2.984
				c2.56-1.721,5.233-3.268,8-4.632c8.62-4.123,18.053-6.263,27.608-6.264c7.487-0.049,14.919,1.288,21.92,3.944
				c1.26,0.487,2.624,0.646,3.962,0.464c4.378-0.597,7.443-4.63,6.846-9.008c-0.506-3.779-0.749-7.588-0.728-11.4
				c-0.018-3.104,0.153-6.205,0.512-9.288c0.545-5.249,1.551-10.44,3.008-15.512c1.722-5.938,4.1-11.667,7.088-17.08
				c0.056-0.104,0.064-0.144,0.16-0.312c0.096-0.168,0.192-0.336,0.28-0.512c3.747-6.937,8.469-13.301,14.024-18.896
				c16.539-16.954,39.244-26.479,62.928-26.4c2.664,0,5.32,0.152,7.888,0.392c2.296,0.208,4.528,0.504,7.2,1.008
				c1.514,0.19,3.017,0.457,4.504,0.8c39.909,9.326,68.206,44.816,68.408,85.8c0,1.728-0.08,3.456-0.152,5.176
				c-0.045,1.04,0.113,2.078,0.466,3.057c1.497,4.157,6.081,6.313,10.238,4.815c9.45-3.376,19.414-5.084,29.448-5.048
				c45.902-0.079,84.154,35.136,87.864,80.888C467.792,243.488,431.706,285.942,383.264,289.87z"/>
			<path d="M269.656,329.19l-22.624,22.624c-1.499,1.5-2.342,3.534-2.342,5.654c-0.001,4.418,3.58,8.001,7.998,8.002
				c2.122,0,4.156-0.844,5.656-2.344l22.624-22.624c2.995-3.1,2.995-8.016,0-11.116C277.899,326.208,272.834,326.121,269.656,329.19
				z"/>
			<path d="M210.344,363.126l22.624-22.624c0.067-0.064,0.132-0.13,0.196-0.196c3.07-3.178,2.982-8.242-0.196-11.312
				s-8.242-2.982-11.312,0.196l-22.624,22.624c-1.499,1.5-2.342,3.534-2.342,5.654c-0.001,4.418,3.58,8.001,7.998,8.002
				C206.81,365.47,208.844,364.627,210.344,363.126z"/>
			<path d="M162.344,363.126l22.624-22.624c0.067-0.064,0.132-0.13,0.196-0.196c3.07-3.178,2.982-8.242-0.196-11.312
				s-8.242-2.982-11.312,0.196l-22.624,22.624c-1.499,1.5-2.342,3.534-2.342,5.654c-0.001,4.418,3.58,8.001,7.998,8.002
				C158.81,365.47,160.844,364.627,162.344,363.126z"/>
			<path d="M317.656,329.19l-22.624,22.624c-1.499,1.5-2.342,3.534-2.342,5.654c-0.001,4.418,3.58,8.001,7.998,8.002
				c2.122,0,4.156-0.844,5.656-2.344l22.624-22.624c2.995-3.1,2.995-8.016,0-11.116C325.899,326.208,320.834,326.121,317.656,329.19
				z"/>
			<path d="M365.656,329.19l-22.624,22.624c-1.499,1.5-2.342,3.534-2.342,5.654c-0.001,4.418,3.58,8.001,7.998,8.002
				c2.122,0,4.156-0.844,5.656-2.344l22.624-22.624c2.995-3.1,2.995-8.016,0-11.116C373.899,326.208,368.834,326.121,365.656,329.19
				z"/>
			<path d="M213.656,385.19l-22.624,22.624c-1.499,1.5-2.342,3.534-2.342,5.654c-0.001,4.418,3.58,8.001,7.998,8.002
				c2.122,0,4.156-0.844,5.656-2.344l22.624-22.624c0.067-0.064,0.132-0.13,0.196-0.196c3.07-3.178,2.982-8.242-0.196-11.312
				S216.726,382.012,213.656,385.19z"/>
			<path d="M165.656,385.19l-22.624,22.624c-1.499,1.5-2.342,3.534-2.342,5.654c-0.001,4.418,3.58,8.001,7.998,8.002
				c2.122,0,4.156-0.844,5.656-2.344l22.624-22.624c0.067-0.064,0.132-0.13,0.196-0.196c3.07-3.178,2.982-8.242-0.196-11.312
				S168.726,382.012,165.656,385.19z"/>
			<path d="M117.656,385.19l-22.624,22.624c-1.499,1.5-2.342,3.534-2.342,5.654c-0.001,4.418,3.58,8.001,7.998,8.002
				c2.122,0,4.156-0.844,5.656-2.344l22.624-22.624c0.067-0.064,0.132-0.13,0.196-0.196c3.07-3.178,2.982-8.242-0.196-11.312
				S120.726,382.012,117.656,385.19z"/>
			<path d="M261.656,385.19l-22.624,22.624c-1.499,1.5-2.342,3.534-2.342,5.654c-0.001,4.418,3.58,8.001,7.998,8.002
				c2.122,0,4.156-0.844,5.656-2.344l22.624-22.624c2.995-3.1,2.995-8.016,0-11.116C269.899,382.208,264.834,382.121,261.656,385.19
				z"/>
			<path d="M309.656,385.19l-22.624,22.624c-1.499,1.5-2.342,3.534-2.342,5.654c-0.001,4.418,3.58,8.001,7.998,8.002
				c2.122,0,4.156-0.844,5.656-2.344l22.624-22.624c2.995-3.1,2.995-8.016,0-11.116C317.899,382.208,312.834,382.121,309.656,385.19
				z"/>
			<path d="M157.656,441.19l-22.624,22.624c-1.499,1.5-2.342,3.534-2.342,5.654c-0.001,4.418,3.58,8.001,7.998,8.002
				c2.122,0,4.156-0.844,5.656-2.344l22.624-22.624c0.067-0.064,0.132-0.13,0.196-0.196c3.07-3.178,2.982-8.242-0.196-11.312
				S160.726,438.012,157.656,441.19z"/>
			<path d="M109.656,441.19l-22.624,22.624c-1.499,1.5-2.342,3.534-2.342,5.654c-0.001,4.418,3.58,8.001,7.998,8.002
				c2.122,0,4.156-0.844,5.656-2.344l22.624-22.624c0.067-0.064,0.132-0.13,0.196-0.196c3.07-3.178,2.982-8.242-0.196-11.312
				S112.726,438.012,109.656,441.19z"/>
			<path d="M61.656,441.19l-22.624,22.624c-1.499,1.5-2.342,3.534-2.342,5.654c-0.001,4.418,3.58,8.001,7.998,8.002
				c2.122,0,4.156-0.844,5.656-2.344l22.624-22.624c0.067-0.064,0.132-0.13,0.196-0.196c3.07-3.178,2.982-8.242-0.196-11.312
				C69.79,437.925,64.726,438.012,61.656,441.19z"/>
			<path d="M205.656,441.19l-22.624,22.624c-1.499,1.5-2.342,3.534-2.342,5.654c-0.001,4.418,3.58,8.001,7.998,8.002
				c2.122,0,4.156-0.844,5.656-2.344l22.624-22.624c0.067-0.064,0.132-0.13,0.196-0.196c3.07-3.178,2.982-8.242-0.196-11.312
				S208.726,438.012,205.656,441.19z"/>
			<path d="M253.656,441.19l-22.624,22.624c-1.499,1.5-2.342,3.534-2.342,5.654c-0.001,4.418,3.58,8.001,7.998,8.002
				c2.122,0,4.156-0.844,5.656-2.344l22.624-22.624c2.995-3.1,2.995-8.016,0-11.116C261.899,438.208,256.834,438.121,253.656,441.19
				z"/>
		</g>
	</g>
</g>
<g>
</g>
<g>
</g>
<g>
</g>
<g>
</g>
<g>
</g>
<g>
</g>
<g>
</g>
<g>
</g>
<g>
</g>
<g>
</g>
<g>
</g>
<g>
</g>
<g>
</g>
<g>
</g>
<g>
</g>
</svg>
