<?xml version="1.0" encoding="iso-8859-1"?>
<!-- Generator: Adobe Illustrator 19.0.0, SVG Export Plug-In . SVG Version: 6.00 Build 0)  -->
<svg version="1.1" id="Capa_1" xmlns="http://www.w3.org/2000/svg" xmlns:xlink="http://www.w3.org/1999/xlink" x="0px" y="0px"
	 viewBox="0 0 480.237 480.237" style="enable-background:new 0 0 480.237 480.237;" xml:space="preserve">
<g>
	<g>
		<g>
			<path d="M180.574,385.775c-3.853-2.512-9.013-1.425-11.525,2.427c-4.184,7.448-25.024,45.312-25.024,59.92
				c0,17.673,14.327,32,32,32s32-14.327,32-32c0-14.608-20.8-52.472-25.024-59.92C182.369,387.233,181.542,386.406,180.574,385.775z
				 M176.025,464.122c-8.837,0-16-7.163-16-16c3.495-13.713,8.88-26.874,16-39.104c7.124,12.228,12.509,25.389,16,39.104
				C192.025,456.958,184.861,464.122,176.025,464.122z"/>
			<path d="M308.574,385.775c-3.853-2.512-9.013-1.425-11.525,2.427c-4.224,7.448-25.024,45.312-25.024,59.92
				c0,17.673,14.327,32,32,32c17.673,0,32-14.327,32-32c0-14.608-20.8-52.472-25.024-59.92
				C310.369,387.233,309.542,386.406,308.574,385.775z M304.025,464.122c-8.837,0-16-7.163-16-16
				c3.495-13.713,8.88-26.874,16-39.104c7.124,12.228,12.509,25.389,16,39.104C320.025,456.958,312.861,464.122,304.025,464.122z"/>
			<path d="M247.001,324.202c-0.632-0.969-1.458-1.796-2.427-2.427c-3.853-2.512-9.013-1.425-11.525,2.427
				c-4.184,7.448-25.024,45.312-25.024,59.92c0,17.673,14.327,32,32,32c17.673,0,32-14.327,32-32
				C272.025,369.514,251.225,331.65,247.001,324.202z M240.025,400.122c-8.837,0-16-7.163-16-16c3.495-13.713,8.88-26.874,16-39.104
				c7.124,12.228,12.509,25.389,16,39.104C256.025,392.958,248.861,400.122,240.025,400.122z"/>
			<path d="M119.001,324.202c-0.632-0.969-1.458-1.796-2.427-2.427c-3.853-2.512-9.013-1.425-11.525,2.427
				c-4.184,7.448-25.024,45.312-25.024,59.92c0,17.673,14.327,32,32,32s32-14.327,32-32
				C144.025,369.514,123.225,331.65,119.001,324.202z M112.025,400.122c-8.837,0-16-7.163-16-16c3.495-13.713,8.88-26.874,16-39.104
				c7.124,12.228,12.509,25.389,16,39.104C128.025,392.958,120.861,400.122,112.025,400.122z"/>
			<path d="M372.574,321.775c-3.853-2.512-9.013-1.425-11.525,2.427c-4.224,7.448-25.024,45.312-25.024,59.92
				c0,17.673,14.327,32,32,32c17.673,0,32-14.327,32-32c0-14.608-20.8-52.472-25.024-59.92
				C374.369,323.233,373.542,322.406,372.574,321.775z M368.025,400.122c-8.837,0-16-7.163-16-16
				c3.495-13.713,8.88-26.874,16-39.104c7.124,12.228,12.509,25.389,16,39.104C384.025,392.958,376.861,400.122,368.025,400.122z"/>
			<path d="M479.888,191.672c-4.407-54.062-49.622-95.658-103.863-95.551c-8.125-0.014-16.223,0.925-24.128,2.8
				c-2.825-57.324-51.586-101.504-108.91-98.678c-24.448,1.205-47.686,11.001-65.618,27.662
				C130.97,13.802,81.923,39.983,67.82,86.382c-4.617,15.188-5.029,31.344-1.195,46.748c-7.402,8.798-12.804,19.1-15.832,30.192
				c-37.997,11.723-59.297,52.029-47.574,90.026c9.313,30.186,37.215,50.776,68.806,50.774h304c2.968,0,5.848-0.088,8.656-0.344
				C441.929,299.111,484.554,248.92,479.888,191.672z M152.025,40.122c4.368-0.003,8.727,0.388,13.024,1.168
				c-0.952,1.256-1.8,2.568-2.688,3.864c-0.568,0.8-1.176,1.6-1.72,2.456c-1.672,2.584-3.248,5.224-4.68,7.936
				c-0.208,0.4-0.376,0.8-0.576,1.216c-1.211,2.352-2.325,4.752-3.344,7.2c-0.408,0.984-0.752,1.984-1.136,2.984
				c-0.728,1.912-1.416,3.832-2.032,5.784c-0.352,1.128-0.672,2.256-0.984,3.392c-0.528,1.912-1,3.832-1.424,5.776
				c-0.248,1.144-0.488,2.28-0.704,3.432c-0.376,2.088-0.664,4.2-0.912,6.32c-0.12,1.008-0.28,2.008-0.368,3.024
				c-0.28,3.104-0.456,6.248-0.456,9.448c0,0.536,0,1.072,0,1.6c-5.265-1.074-10.626-1.61-16-1.6c-2.512,0-5.008,0.152-7.496,0.392
				c-0.8,0.072-1.528,0.184-2.288,0.28c-1.76,0.219-3.504,0.485-5.232,0.8c-0.8,0.152-1.6,0.312-2.4,0.496
				c-1.84,0.408-3.664,0.896-5.464,1.44c-0.584,0.176-1.184,0.32-1.76,0.512c-2.32,0.752-4.6,1.608-6.84,2.568
				c-0.616,0.264-1.208,0.576-1.816,0.856c-1.6,0.752-3.248,1.544-4.8,2.4c-0.8,0.424-1.6,0.872-2.336,1.328
				c-1.424,0.8-2.808,1.72-4.176,2.64c-0.72,0.488-1.44,0.952-2.144,1.464c-0.248,0.176-0.52,0.336-0.8,0.52
				c-0.288-2.555-0.437-5.124-0.448-7.696C80.069,72.376,112.279,40.166,152.025,40.122z M383.289,287.834
				c-2.4,0.224-4.8,0.288-7.264,0.288h-304c-30.928,0.025-56.02-25.027-56.045-55.955c-0.021-26.031,17.898-48.644,43.245-54.573
				c3.044-0.704,5.4-3.116,6.032-6.176c6.112-29.819,32.329-51.244,62.768-51.296c7.487-0.049,14.919,1.288,21.92,3.944
				c4.122,1.591,8.753-0.46,10.344-4.582c0.487-1.26,0.646-2.624,0.464-3.962c-0.506-3.779-0.749-7.588-0.728-11.4
				c0-48.601,39.399-88,88-88s88,39.399,88,88c0,1.728-0.08,3.456-0.152,5.176c-0.191,4.414,3.233,8.147,7.647,8.338
				c1.04,0.045,2.078-0.113,3.057-0.466c9.45-3.376,19.414-5.084,29.448-5.048c48.601-0.084,88.068,39.247,88.152,87.848
				C464.256,245.871,429.04,284.124,383.289,287.834z"/>
		</g>
	</g>
</g>
<g>
</g>
<g>
</g>
<g>
</g>
<g>
</g>
<g>
</g>
<g>
</g>
<g>
</g>
<g>
</g>
<g>
</g>
<g>
</g>
<g>
</g>
<g>
</g>
<g>
</g>
<g>
</g>
<g>
</g>
</svg>
