<?xml version="1.0" encoding="iso-8859-1"?>
<!-- Generator: Adobe Illustrator 19.0.0, SVG Export Plug-In . SVG Version: 6.00 Build 0)  -->
<svg version="1.1" id="Capa_1" xmlns="http://www.w3.org/2000/svg" xmlns:xlink="http://www.w3.org/1999/xlink" x="0px" y="0px"
	 viewBox="0 0 482.862 482.862" style="enable-background:new 0 0 482.862 482.862;" xml:space="preserve">
<g>
	<g>
		<path d="M463.566,326.16c-29.955,13.631-62.497,20.644-95.408,20.56c-128.07-0.146-231.855-103.93-232-232
			c-0.084-32.911,6.929-65.453,20.56-95.408L165.518,0l-19.36,8.704c-124.87,56.28-180.473,203.13-124.193,328
			c56.28,124.87,203.13,180.473,328,124.193c55.162-24.862,99.332-69.032,124.193-124.193l8.704-19.352L463.566,326.16z
			 M248.158,466.72c-128.13-0.014-231.989-103.895-231.975-232.025c0.009-83.657,45.056-160.83,117.895-201.975
			c-9.273,26.342-13.981,54.074-13.92,82c0.154,136.903,111.097,247.846,248,248c27.926,0.061,55.658-4.646,82-13.92
			C408.976,421.619,331.815,466.663,248.158,466.72z"/>
	</g>
</g>
<g>
	<g>
		<rect x="384.158" y="50.72" width="16" height="32"/>
	</g>
</g>
<g>
	<g>
		<rect x="384.158" y="98.72" width="16" height="32"/>
	</g>
</g>
<g>
	<g>
		<rect x="400.158" y="82.72" width="32" height="16"/>
	</g>
</g>
<g>
	<g>
		<rect x="352.158" y="82.72" width="32" height="16"/>
	</g>
</g>
<g>
	<g>
		<rect x="384.158" y="162.72" width="16" height="32"/>
	</g>
</g>
<g>
	<g>
		<rect x="384.158" y="210.72" width="16" height="32"/>
	</g>
</g>
<g>
	<g>
		<rect x="400.158" y="194.72" width="32" height="16"/>
	</g>
</g>
<g>
	<g>
		<rect x="352.158" y="194.72" width="32" height="16"/>
	</g>
</g>
<g>
	<g>
		<rect x="272.158" y="122.72" width="16" height="16"/>
	</g>
</g>
<g>
	<g>
		<rect x="272.158" y="154.72" width="16" height="16"/>
	</g>
</g>
<g>
	<g>
		<rect x="288.158" y="138.72" width="16" height="16"/>
	</g>
</g>
<g>
	<g>
		<rect x="256.158" y="138.72" width="16" height="16"/>
	</g>
</g>
<g>
</g>
<g>
</g>
<g>
</g>
<g>
</g>
<g>
</g>
<g>
</g>
<g>
</g>
<g>
</g>
<g>
</g>
<g>
</g>
<g>
</g>
<g>
</g>
<g>
</g>
<g>
</g>
<g>
</g>
</svg>
