<?xml version="1.0" encoding="iso-8859-1"?>
<!-- Generator: Adobe Illustrator 19.0.0, SVG Export Plug-In . SVG Version: 6.00 Build 0)  -->
<svg version="1.1" id="Capa_1" xmlns="http://www.w3.org/2000/svg" xmlns:xlink="http://www.w3.org/1999/xlink" x="0px" y="0px"
	 viewBox="0 0 479.898 479.898" style="enable-background:new 0 0 479.898 479.898;" xml:space="preserve">
<g>
	<g>
		<path d="M423.898,282.038v-0.016c-2.898-0.004-5.792,0.215-8.656,0.656c4.723-30.623-16.273-59.277-46.896-64
			c-2.795-0.431-5.619-0.65-8.448-0.656c-5.86-0.043-11.686,0.89-17.24,2.76c-0.312,0.096-0.616,0.248-0.92,0.344
			c-9.718-48.483-52.393-83.307-101.84-83.104c-6.307,0.047-12.595,0.681-18.784,1.896c-2.822-3.585-6.15-6.741-9.88-9.368
			c-6.794-4.761-14.738-7.617-23.008-8.272c-4.809-0.594-9.686-0.323-14.4,0.8c-4.929-18.066-18.628-32.434-36.44-38.216
			c-5.631-1.911-11.541-2.871-17.488-2.84c-30.985,0.058-56.057,25.223-56,56.208c0.005,2.828,0.224,5.652,0.656,8.448
			c-30.566-4.72-59.17,16.233-63.89,46.798c-4.72,30.566,16.233,59.17,46.798,63.89c2.791,0.431,5.611,0.65,8.436,0.656h81.256
			c6.24,39.514,34.518,71.984,72.8,83.592c-0.912,2.735-1.534,5.559-1.856,8.424c-0.088,1.36-0.168,2.624-0.168,4
			c0.057,22.068,17.932,39.943,40,40h175.968c30.928,0,56-25.072,56-56C479.898,307.11,454.826,282.038,423.898,282.038z
			 M147.906,193.526c-0.744,1.408-1.456,2.824-2.136,4.272c-0.488,1.056-0.968,2.12-1.424,3.2c-0.632,1.472-1.216,2.96-1.776,4.456
			c-0.408,1.096-0.8,2.192-1.184,3.304c-0.52,1.544-0.976,3.104-1.424,4.672c-0.312,1.112-0.64,2.216-0.92,3.344
			c-0.408,1.648-0.744,3.32-1.072,4.992c-0.208,1.08-0.456,2.152-0.632,3.2c-0.304,1.864-0.512,3.752-0.72,5.648
			c-0.104,0.936-0.248,1.856-0.32,2.792c-0.264,2.848-0.4,5.72-0.4,8.616h-80c-22.091,0-40-17.909-40-40s17.909-40,40-40
			c5.963-0.033,11.853,1.306,17.216,3.912c3.972,1.935,8.761,0.285,10.696-3.687c1.078-2.212,1.078-4.797,0-7.009
			c-2.602-5.365-3.94-11.254-3.912-17.216c0.026-22.08,17.92-39.974,40-40c4.236-0.03,8.447,0.655,12.456,2.024
			c8.706,2.807,16.176,8.535,21.144,16.216c2.981,4.665,4.979,9.889,5.872,15.352c0.162,0.792,0.269,1.594,0.32,2.4
			c0.287,4.409,4.094,7.75,8.503,7.463c0.954-0.062,1.889-0.295,2.761-0.687c4.068-1.835,8.481-2.779,12.944-2.768
			c0.84-0.027,1.681,0.021,2.512,0.144c5.657,0.411,11.098,2.346,15.744,5.6c0.416,0.288,0.84,0.592,1.248,0.904
			c-0.8,0.304-1.6,0.68-2.4,1c-1.176,0.472-2.352,0.944-3.504,1.456c-1.448,0.64-2.864,1.328-4.272,2.032
			c-1.08,0.536-2.168,1.064-3.2,1.6c-1.464,0.8-2.872,1.648-4.288,2.504c-0.944,0.568-1.904,1.12-2.832,1.72
			c-1.552,1.008-3.04,2.096-4.528,3.2c-0.728,0.528-1.48,1.024-2.192,1.6c-2.168,1.68-4.272,3.424-6.296,5.256l-0.12,0.12
			c-1.976,1.8-3.872,3.68-5.704,5.6c-0.608,0.648-1.168,1.344-1.76,2c-1.224,1.376-2.4,2.752-3.592,4.184
			c-0.656,0.8-1.264,1.672-1.888,2.512c-1.016,1.336-2.016,2.68-2.952,4.064c-0.632,0.928-1.224,1.88-1.816,2.824
			c-0.864,1.368-1.712,2.736-2.512,4.136C148.978,191.486,148.442,192.502,147.906,193.526z M218.122,327.334
			c-36.333-9.358-62.779-40.662-65.936-78.048c-0.224-2.4-0.288-4.8-0.288-7.264c0-2.464,0.112-5.096,0.32-7.608
			c2.917-35.068,26.555-64.978,60-75.92c2.368-0.779,4.789-1.459,7.264-2.04h0.064c6.661-1.626,13.495-2.443,20.352-2.432
			c43.56-0.195,80.634,31.673,86.984,74.768c-0.112,0.072-0.192,0.184-0.296,0.256c-2.389,1.783-4.63,3.755-6.704,5.896
			c-0.464,0.48-0.904,0.968-1.36,1.464c-2.083,2.244-3.983,4.652-5.68,7.2c-3.066,4.769-5.391,9.974-6.896,15.44
			c-3.305-0.689-6.672-1.033-10.048-1.024c-1.192-0.031-2.384,0.025-3.568,0.168c-6.36,0.435-12.566,2.157-18.24,5.064
			c-1.915,0.977-3.765,2.078-5.536,3.296c-4.383,3.034-8.226,6.782-11.368,11.088c-4.712,6.47-7.736,14.012-8.8,21.944
			c-0.695,4.793-0.633,9.666,0.184,14.44c-5.677-0.1-11.309,1.024-16.512,3.296c-2.369,1.065-4.632,2.351-6.76,3.84
			c-0.504,0.352-0.992,0.696-1.48,1.064C221.758,323.737,219.85,325.449,218.122,327.334z M423.898,378.022h-176
			c-4.3,0.015-8.522-1.156-12.2-3.384c-7.305-4.299-11.793-12.14-11.8-20.616c0-0.992,0.072-1.912,0.112-2.672
			c0.411-3.848,1.787-7.529,4-10.704c4.458-6.619,11.907-10.598,19.888-10.624c2.167,0.03,4.32,0.353,6.4,0.96
			c1.019,0.225,2.011,0.558,2.96,0.992c4.038,1.794,8.765-0.025,10.559-4.063c1.004-2.259,0.907-4.855-0.263-7.033
			c-2.418-4.577-3.674-9.679-3.656-14.856c0.011-1.449,0.124-2.895,0.336-4.328c1.177-8.882,6.042-16.857,13.4-21.968
			c4.888-3.35,10.597-5.303,16.512-5.648c0.315-0.048,0.634-0.067,0.952-0.056c0.312,0,0.616,0.08,0.928,0.088
			c4.416,0.027,8.783,0.93,12.848,2.656c4.03,1.812,8.765,0.014,10.577-4.015c0.392-0.872,0.625-1.807,0.687-2.761
			c0.065-0.907,0.193-1.807,0.384-2.696c1.908-11.582,8.859-21.719,18.976-27.672c2.559-1.53,5.29-2.752,8.136-3.64
			c3.95-1.332,8.095-1.995,12.264-1.96c22.08,0.026,39.974,17.92,40,40c0.028,5.962-1.31,11.851-3.912,17.216
			c-1.935,3.972-0.285,8.761,3.687,10.696c2.212,1.078,4.797,1.078,7.009,0c5.363-2.606,11.253-3.945,17.216-3.912
			c22.091,0,40,17.909,40,40C463.898,360.113,445.989,378.022,423.898,378.022z"/>
	</g>
</g>
<g>
	<g>
		<path d="M239.898,74.022c-4.418,0-8,3.582-8,8v32c0,4.418,3.582,8,8,8s8-3.582,8-8v-32
			C247.898,77.603,244.316,74.022,239.898,74.022z"/>
	</g>
</g>
<g>
	<g>
		<path d="M129.034,287.942c-1.691-4.082-6.371-6.02-10.453-4.329c-0.001,0-0.002,0.001-0.003,0.001l-29.56,12.24
			c-4.082,1.69-6.022,6.37-4.332,10.452c1.69,4.082,6.37,6.022,10.452,4.332l29.6-12.24
			C128.809,296.694,130.731,292.015,129.034,287.942z"/>
	</g>
</g>
<g>
	<g>
		<path d="M193.978,360.886c-4.081-1.693-8.762,0.243-10.455,4.325c0,0.001-0.001,0.002-0.001,0.003l-12.248,29.6
			c-1.69,4.083,0.25,8.762,4.332,10.452c4.083,1.69,8.762-0.25,10.452-4.332l12.24-29.592
			C199.992,367.261,198.058,362.58,193.978,360.886z"/>
	</g>
</g>
<g>
	<g>
		<path d="M395.15,177.738c-1.69-4.083-6.37-6.022-10.452-4.332l-29.6,12.24c-4.083,1.687-6.026,6.365-4.339,10.449
			c0.001,0.002,0.002,0.005,0.003,0.007c1.691,4.082,6.371,6.02,10.453,4.329c0.001,0,0.002-0.001,0.003-0.001l29.6-12.24
			C394.9,186.5,396.84,181.82,395.15,177.738z"/>
	</g>
</g>
<g>
	<g>
		<path d="M304.19,86.778c-4.082-1.69-8.762,0.25-10.452,4.332l-12.248,29.6c-1.688,4.08,0.249,8.757,4.328,10.448
			c0.972,0.399,2.013,0.605,3.064,0.608c3.235,0.001,6.153-1.947,7.392-4.936l12.248-29.6
			C310.212,93.147,308.272,88.468,304.19,86.778z"/>
	</g>
</g>
<g>
	<g>
		<path d="M155.05,326.87c-3.126-3.126-8.194-3.126-11.32,0l-22.624,22.64c-3.178,3.069-3.266,8.134-0.196,11.312
			c3.069,3.178,8.134,3.266,11.312,0.196c0.067-0.064,0.132-0.13,0.196-0.196l22.632-22.632
			C158.176,335.064,158.176,329.996,155.05,326.87z"/>
	</g>
</g>
<g>
	<g>
		<path d="M358.493,123.222c-3.1-2.994-8.015-2.994-11.116,0l-22.632,22.632c-3.128,3.12-3.135,8.186-0.014,11.314
			c1.502,1.506,3.543,2.352,5.67,2.35v0c2.124,0.002,4.162-0.842,5.664-2.344l22.624-22.64
			C361.759,131.356,361.671,126.291,358.493,123.222z"/>
	</g>
</g>
<g>
</g>
<g>
</g>
<g>
</g>
<g>
</g>
<g>
</g>
<g>
</g>
<g>
</g>
<g>
</g>
<g>
</g>
<g>
</g>
<g>
</g>
<g>
</g>
<g>
</g>
<g>
</g>
<g>
</g>
</svg>
