<?xml version="1.0" encoding="iso-8859-1"?>
<!-- Generator: Adobe Illustrator 19.0.0, SVG Export Plug-In . SVG Version: 6.00 Build 0)  -->
<svg version="1.1" id="Capa_1" xmlns="http://www.w3.org/2000/svg" xmlns:xlink="http://www.w3.org/1999/xlink" x="0px" y="0px"
	 viewBox="0 0 479.647 479.647" style="enable-background:new 0 0 479.647 479.647;" xml:space="preserve">
<g>
	<g>
		<g>
			<path d="M476.873,176.907c-13.122-55.919-69.09-90.612-125.009-77.491C349.31,53.004,316.459,13.832,271.2,3.233
				c-1.92-0.456-3.928-0.824-5.528-1.04c-2.76-0.52-5.464-0.872-8.36-1.144c-31.084-2.794-61.783,8.498-83.648,30.768
				c-6.571,6.647-12.163,14.194-16.608,22.416l-0.064,0.088c-0.261,0.395-0.486,0.812-0.672,1.248
				c-3.402,6.268-6.119,12.885-8.104,19.736c-1.723,5.938-2.909,12.018-3.544,18.168c-0.432,3.693-0.641,7.409-0.624,11.128
				c0,0.536,0,1.072,0,1.6c-17.089-3.412-34.823-1.221-50.568,6.248c-3.437,1.694-6.761,3.607-9.952,5.728
				c-1.899,1.23-3.709,2.594-5.416,4.08c-3.01,2.367-5.84,4.955-8.464,7.744c-2.589,2.714-4.964,5.624-7.104,8.704
				c-5.355,7.619-9.33,16.118-11.744,25.112c-3.541,1.069-6.984,2.442-10.288,4.104c-5.827,2.844-11.246,6.458-16.112,10.744
				c-3.496,3.032-6.665,6.421-9.456,10.112C5.216,201.316-0.044,216.746,0,232.617c0.044,39.746,32.254,71.956,72,72
				c4.418,0,8-3.582,8-8s-3.582-8-8-8c-30.913-0.035-55.965-25.087-56-56c-0.026-12.363,4.08-24.38,11.664-34.144
				c2.162-2.847,4.618-5.459,7.328-7.792c3.839-3.376,8.115-6.22,12.712-8.456c3.691-1.843,7.591-3.235,11.616-4.144
				c3.021-0.731,5.345-3.146,5.96-6.192c1.762-8.601,5.271-16.748,10.312-23.936c1.683-2.445,3.555-4.753,5.6-6.904
				c2.231-2.36,4.638-4.548,7.2-6.544c1.263-1.088,2.6-2.088,4-2.992c2.563-1.716,5.236-3.263,8-4.632
				c15.529-7.399,33.383-8.235,49.536-2.32c1.263,0.487,2.629,0.645,3.97,0.459c4.377-0.604,7.435-4.643,6.83-9.019
				c-0.503-3.773-0.746-7.577-0.728-11.384c-0.016-3.101,0.155-6.2,0.512-9.28c0.537-5.253,1.544-10.447,3.008-15.52
				c1.724-5.934,4.098-11.66,7.08-17.072c0.064-0.112,0.128-0.232,0.176-0.336l0.272-0.496c3.748-6.934,8.468-13.297,14.016-18.896
				c16.544-16.951,39.25-26.476,62.936-26.4c2.656,0,5.312,0.152,7.88,0.36c2.32,0.2,4.552,0.504,7.2,1
				c1.504,0.208,3.008,0.48,4.52,0.84c39.908,9.326,68.202,44.818,68.4,85.8c0,1.728-0.08,3.44-0.152,5.184
				c-0.044,1.037,0.115,2.072,0.466,3.049c1.497,4.157,6.081,6.313,10.238,4.815c9.45-3.376,19.414-5.084,29.448-5.048
				c45.902-0.079,84.154,35.136,87.864,80.888c3.928,48.442-32.158,90.896-80.6,94.824c-2.4,0.216-4.8,0.288-7.264,0.288
				c-4.418,0-8,3.582-8,8s3.582,8,8,8c2.968,0,5.848-0.088,8.664-0.344c4.956-0.432,9.875-1.22,14.718-2.357
				C455.301,288.794,489.995,232.826,476.873,176.907z"/>
			<path d="M259.6,264.617h-168c-4.418,0-8,3.582-8,8s3.582,8,8,8h168c31.035,0.009,60.444,13.878,80.194,37.818
				c36.552,44.307,30.265,109.855-14.042,146.406c-1.849,1.522-2.918,3.792-2.915,6.187c0.006,4.418,3.593,7.995,8.011,7.989
				c1.854,0.005,3.653-0.634,5.088-1.808c27.652-22.796,43.668-56.758,43.667-92.595C379.602,318.339,325.874,264.615,259.6,264.617
				z"/>
			<path d="M333.584,432.217c9.125-14.188,13.979-30.7,13.985-47.569c0.017-48.601-39.368-88.014-87.969-88.031h-136
				c-4.418,0-8,3.582-8,8s3.582,8,8,8h136c13.795,0.005,27.298,3.972,38.903,11.431c33.451,21.499,43.14,66.046,21.641,99.497
				c-0.832,1.289-1.275,2.791-1.277,4.325c-0.006,4.418,3.571,8.005,7.989,8.011C329.576,435.882,332.11,434.502,333.584,432.217z"
				/>
			<path d="M259.6,328.617h-104c-4.418,0-8,3.582-8,8s3.582,8,8,8h104c22.08,0.026,39.974,17.92,40,40c0,4.418,3.582,8,8,8
				s8-3.582,8-8C315.561,353.705,290.512,328.656,259.6,328.617z"/>
			<path d="M275.6,384.617c-4.418,0-8,3.582-8,8c0,8.837-7.163,16-16,16c-8.837,0-16-7.163-16-16s7.163-16,16-16
				c4.418,0,8-3.582,8-8s-3.582-8-8-8c-17.673,0-32,14.327-32,32c0,17.673,14.327,32,32,32c17.673,0,32-14.327,32-32
				C283.6,388.198,280.019,384.617,275.6,384.617z"/>
			<path d="M115.6,240.617c0,4.418,3.582,8,8,8h136c30.928,0,56-25.072,56-56c0-30.928-25.072-56-56-56c-4.418,0-8,3.582-8,8
				s3.582,8,8,8c22.091,0,40,17.909,40,40s-17.909,40-40,40h-136C119.182,232.617,115.6,236.198,115.6,240.617z"/>
			<path d="M259.6,184.617c4.418,0,8,3.582,8,8s3.582,8,8,8s8-3.582,8-8c0-13.255-10.745-24-24-24c-13.255,0-24,10.745-24,24
				s10.745,24,24,24c4.418,0,8-3.582,8-8s-3.582-8-8-8c-4.418,0-8-3.582-8-8S255.182,184.617,259.6,184.617z"/>
		</g>
	</g>
</g>
<g>
</g>
<g>
</g>
<g>
</g>
<g>
</g>
<g>
</g>
<g>
</g>
<g>
</g>
<g>
</g>
<g>
</g>
<g>
</g>
<g>
</g>
<g>
</g>
<g>
</g>
<g>
</g>
<g>
</g>
</svg>
