<?xml version="1.0" encoding="iso-8859-1"?>
<!-- Generator: Adobe Illustrator 19.0.0, SVG Export Plug-In . SVG Version: 6.00 Build 0)  -->
<svg version="1.1" id="Capa_1" xmlns="http://www.w3.org/2000/svg" xmlns:xlink="http://www.w3.org/1999/xlink" x="0px" y="0px"
	 viewBox="0 0 480.025 480.025" style="enable-background:new 0 0 480.025 480.025;" xml:space="preserve">
<g>
	<g>
		<g>
			<path d="M480.025,280.013c-0.08-57.517-46.771-104.079-104.289-103.999c-8.028,0.011-16.027,0.951-23.839,2.799
				c-2.043-43.234-30.76-80.636-72-93.776c-0.176-0.056-0.36-0.112-0.544-0.152c-10.126-3.243-20.695-4.887-31.328-4.872
				c-26.225-0.045-51.486,9.888-70.656,27.784c-46.405-14.098-95.453,12.091-109.551,58.496
				c-4.613,15.185-5.025,31.335-1.193,46.736c-7.403,8.794-12.806,19.094-15.832,30.184c-37.997,11.723-59.297,52.029-47.574,90.026
				c9.313,30.186,37.215,50.776,68.806,50.774h24c0.04,30.911,25.089,55.96,56,56h240c2.968,0,5.848-0.168,8.8-0.44
				c45.048-4.358,79.369-42.302,79.2-87.56c-0.026-11.838-2.476-23.545-7.2-34.4C477.572,305.645,480.014,292.888,480.025,280.013z
				 M144.205,120.432c2.597-0.282,5.208-0.422,7.82-0.42c4.368-0.003,8.727,0.388,13.024,1.168c-0.952,1.256-1.8,2.568-2.688,3.864
				c-0.568,0.8-1.176,1.6-1.72,2.456c-1.672,2.584-3.248,5.224-4.672,7.936c-0.216,0.4-0.384,0.8-0.592,1.232
				c-1.2,2.352-2.32,4.736-3.336,7.2c-0.408,0.976-0.752,1.984-1.136,2.976c-0.728,1.912-1.416,3.832-2.032,5.792
				c-0.352,1.12-0.672,2.248-0.984,3.384c-0.528,1.912-1.008,3.84-1.424,5.784c-0.248,1.136-0.488,2.272-0.696,3.416
				c-0.384,2.096-0.672,4.208-0.928,6.336c-0.112,1.008-0.272,2-0.36,3.016c-0.28,3.096-0.456,6.24-0.456,9.44
				c0,0.536,0,1.072,0,1.6c-5.265-1.074-10.626-1.61-16-1.6c-2.512,0-5.008,0.152-7.496,0.392c-0.76,0.072-1.52,0.184-2.28,0.28
				c-1.76,0.219-3.509,0.485-5.248,0.8c-0.8,0.152-1.6,0.312-2.4,0.488c-1.848,0.416-3.672,0.912-5.48,1.456
				c-0.584,0.168-1.168,0.312-1.744,0.496c-2.32,0.76-4.6,1.6-6.84,2.584c-0.616,0.256-1.2,0.568-1.8,0.84
				c-1.648,0.76-3.264,1.552-4.848,2.4c-0.8,0.424-1.552,0.872-2.328,1.328c-1.424,0.837-2.821,1.723-4.192,2.656
				c-0.712,0.472-1.424,0.936-2.12,1.44c-0.256,0.184-0.528,0.344-0.8,0.536C76.163,160.211,104.708,124.718,144.205,120.432z
				 M106.609,351.445c-1.701,2.35-3.22,4.827-4.544,7.408c-0.088,0.176-0.16,0.368-0.24,0.544c-1.278,2.596-2.348,5.29-3.2,8.056
				c-0.064,0.208-0.176,0.392-0.24,0.6l-26.36-0.04c-30.928,0.006-56.005-25.062-56.01-55.99
				c-0.005-26.005,17.893-48.591,43.211-54.531c3.046-0.705,5.403-3.121,6.032-6.184c6.118-29.816,32.331-51.238,62.768-51.296
				c7.487-0.046,14.919,1.291,21.92,3.944c4.122,1.591,8.753-0.46,10.344-4.582c0.487-1.26,0.646-2.624,0.464-3.962
				c-0.506-3.779-0.749-7.588-0.728-11.4c-0.08-48.521,39.19-87.92,87.712-88c0.096,0,0.192,0,0.288,0
				c9.122-0.014,18.189,1.417,26.864,4.24c0.2,0.064,0.392,0.12,0.6,0.168c36.186,11.768,60.644,45.541,60.536,83.592
				c0,1.728-0.08,3.44-0.152,5.184c-0.186,4.414,3.241,8.144,7.655,8.33c1.037,0.044,2.072-0.115,3.049-0.466
				c9.45-3.376,19.414-5.084,29.448-5.048c48.672,0.07,88.071,39.584,88,88.255c-0.009,6.197-0.671,12.375-1.977,18.433l-0.8-1.008
				c-20.549-26.149-54.067-38.505-86.672-31.952c-7.839-38.984-45.796-64.233-84.78-56.394
				c-26.959,5.421-48.476,25.723-55.452,52.322c-8.267-3.747-17.243-5.676-26.32-5.656c-35.33,0.04-63.96,28.67-64,64
				c-0.001,2.838,0.183,5.674,0.552,8.488c-11.389,1.505-22.02,6.541-30.4,14.4c-0.352,0.328-0.72,0.632-1.072,0.968
				c-2.021,1.976-3.893,4.099-5.6,6.352C107.201,350.621,106.913,351.021,106.609,351.445z M422.977,417.018
				c-7.458,3.545-15.471,5.778-23.688,6.602l0,0.024c-2.4,0.216-4.8,0.368-7.264,0.368h-240c-22.08-0.026-39.974-17.92-40-40
				c-0.006-2.241,0.198-4.477,0.608-6.68c1.85-10.919,8.145-20.582,17.384-26.688c4.98-3.305,10.645-5.438,16.568-6.24
				c0.48-0.064,0.968-0.056,1.448-0.104c1.479-0.176,2.967-0.272,4.456-0.288c0.33-0.021,0.662-0.021,0.992,0
				c4.393,0.475,8.338-2.702,8.813-7.094c0.114-1.054,0.017-2.121-0.285-3.138c-1.318-4.47-1.987-9.107-1.984-13.768
				c0.026-26.499,21.501-47.974,48-48c9.896-0.022,19.55,3.055,27.608,8.8c3.602,2.559,8.596,1.713,11.155-1.889
				c0.819-1.153,1.318-2.502,1.445-3.911c2.783-30.802,30.01-53.516,60.813-50.733c27.438,2.479,48.998,24.548,50.835,52.037
				c0.28,4.409,4.082,7.757,8.491,7.477c0.674-0.043,1.339-0.171,1.981-0.381c7-2.269,14.314-3.417,21.672-3.4
				c22.14-0.013,43.053,10.171,56.696,27.608c3.299,4.192,6.094,8.756,8.328,13.6C474.094,357.083,458.839,399.973,422.977,417.018z
				"/>
			<path d="M152.025,88.013c4.418,0,8-3.582,8-8v-32c0-4.418-3.582-8-8-8s-8,3.582-8,8v32
				C144.025,84.431,147.606,88.013,152.025,88.013z"/>
			<path d="M100.545,93.437c1.692,4.082,6.373,6.02,10.456,4.328c4.082-1.692,6.02-6.374,4.328-10.456l-12.248-29.56
				c-1.69-4.083-6.37-6.022-10.452-4.332s-6.022,6.37-4.332,10.452L100.545,93.437z"/>
			<path d="M42.889,99.845l22.632,22.632c3.223,3.022,8.286,2.86,11.308-0.363c2.887-3.079,2.886-7.872-0.004-10.949L54.201,88.533
				c-3.069-3.178-8.134-3.266-11.312-0.197s-3.266,8.134-0.196,11.312C42.757,99.715,42.822,99.78,42.889,99.845z"/>
			<path d="M14.697,150.461l29.6,12.248c4.082,1.692,8.764-0.245,10.456-4.328c1.692-4.082-0.246-8.764-4.328-10.456l-29.6-12.248
				c-4.082-1.692-8.764,0.245-10.456,4.328C8.677,144.087,10.614,148.768,14.697,150.461z"/>
			<path d="M8.025,208.013h32c4.418,0,8-3.582,8-8s-3.582-8-8-8h-32c-4.418,0-8,3.582-8,8S3.606,208.013,8.025,208.013z"/>
		</g>
	</g>
</g>
<g>
</g>
<g>
</g>
<g>
</g>
<g>
</g>
<g>
</g>
<g>
</g>
<g>
</g>
<g>
</g>
<g>
</g>
<g>
</g>
<g>
</g>
<g>
</g>
<g>
</g>
<g>
</g>
<g>
</g>
</svg>
