<?xml version="1.0" encoding="iso-8859-1"?>
<!-- Generator: Adobe Illustrator 19.0.0, SVG Export Plug-In . SVG Version: 6.00 Build 0)  -->
<svg version="1.1" id="Capa_1" xmlns="http://www.w3.org/2000/svg" xmlns:xlink="http://www.w3.org/1999/xlink" x="0px" y="0px"
	 viewBox="0 0 480.097 480.097" style="enable-background:new 0 0 480.097 480.097;" xml:space="preserve">
<g>
	<g>
		<g>
			<path d="M304.931,231.657c2.782-0.285,5.549-0.703,8.292-1.251c47.657-9.533,78.562-55.895,69.029-103.552
				s-55.895-78.562-103.552-69.029c-5.421-26.959-25.723-48.476-52.322-55.452c-38.464-10.087-77.822,12.916-87.91,51.38
				c-8.281-3.739-17.264-5.672-26.35-5.67C76.771,48.09,48.123,76.75,48.131,112.097c-0.001,2.841,0.183,5.679,0.552,8.496
				c-27.809,3.726-48.569,27.457-48.563,55.515c0.006,30.928,25.083,55.995,56.011,55.989h240
				C299.091,232.097,301.971,231.929,304.931,231.657z M16.131,176.097c0-22.091,17.909-40,40-40h0.624
				c0.277-0.016,0.555-0.016,0.832,0c1.04,0.111,2.091,0.017,3.095-0.276c4.241-1.24,6.673-5.683,5.433-9.924
				c-1.32-4.481-1.989-9.129-1.984-13.8c0.026-26.499,21.501-47.974,48-48c9.891-0.03,19.544,3.033,27.608,8.76
				c1.153,0.819,2.502,1.318,3.911,1.445c4.4,0.399,8.291-2.845,8.689-7.245c2.483-27.439,24.555-48.996,52.046-50.829
				c30.859-2.058,57.544,21.29,59.602,52.149c0.044,0.669,0.171,1.329,0.38,1.966c1.375,4.199,5.893,6.489,10.092,5.114
				c7.003-2.252,14.316-3.386,21.672-3.36c36.953-0.005,67.91,27.966,71.642,64.73c4.015,39.561-24.801,74.887-64.362,78.902
				c-2.408,0.216-4.8,0.368-7.28,0.368h-240C34.039,216.097,16.131,198.188,16.131,176.097z"/>
			<path d="M478.251,374.853c-9.533-47.657-55.895-78.562-103.552-69.029c-5.421-26.959-25.723-48.476-52.322-55.452
				c-38.464-10.087-77.822,12.916-87.91,51.38c-8.281-3.739-17.264-5.672-26.35-5.67c-35.346,0.008-63.994,28.668-63.986,64.014
				c-0.001,2.841,0.183,5.679,0.552,8.496c-27.809,3.726-48.569,27.457-48.563,55.515c0.006,30.928,25.083,55.995,56.011,55.989h240
				c2.96,0,5.84-0.168,8.8-0.44c2.782-0.285,5.549-0.703,8.292-1.251C456.879,468.872,487.784,422.51,478.251,374.853z
				 M399.411,463.729c-2.408,0.216-4.8,0.368-7.28,0.368h-240c-22.091,0-40-17.909-40-40c0-22.091,17.909-40,40-40h0.624
				c0.277-0.016,0.555-0.016,0.832,0c1.04,0.111,2.091,0.017,3.095-0.276c4.241-1.24,6.673-5.683,5.433-9.924
				c-1.32-4.481-1.989-9.129-1.984-13.8c0.026-26.499,21.501-47.974,48-48c9.891-0.03,19.544,3.033,27.608,8.76
				c1.153,0.819,2.502,1.318,3.91,1.445c4.4,0.399,8.291-2.845,8.69-7.245c2.483-27.439,24.555-48.996,52.046-50.829
				c30.859-2.058,57.544,21.29,59.602,52.149c0.044,0.669,0.171,1.329,0.38,1.966c1.375,4.199,5.893,6.489,10.092,5.114
				c7.003-2.252,14.316-3.386,21.672-3.36c36.953-0.005,67.91,27.966,71.642,64.73C467.788,424.388,438.972,459.713,399.411,463.729
				z"/>
		</g>
	</g>
</g>
<g>
</g>
<g>
</g>
<g>
</g>
<g>
</g>
<g>
</g>
<g>
</g>
<g>
</g>
<g>
</g>
<g>
</g>
<g>
</g>
<g>
</g>
<g>
</g>
<g>
</g>
<g>
</g>
<g>
</g>
</svg>
