<?xml version="1.0" encoding="iso-8859-1"?>
<!-- Generator: Adobe Illustrator 19.0.0, SVG Export Plug-In . SVG Version: 6.00 Build 0)  -->
<svg version="1.1" id="Capa_1" xmlns="http://www.w3.org/2000/svg" xmlns:xlink="http://www.w3.org/1999/xlink" x="0px" y="0px"
	 viewBox="0 0 480.066 480.066" style="enable-background:new 0 0 480.066 480.066;" xml:space="preserve">
<g>
	<g>
		<path d="M408.034,128.066h-99.68c-7.127,0.023-14.19-1.335-20.8-4l-25.664-10.224c-29.276-11.772-60.542-17.807-92.096-17.776
			h-17.096L64.034,80.938v-8.936c17.673-13.255,21.255-38.327,8-56c-13.255-17.673-38.327-21.255-56-8
			c-17.673,13.255-21.255,38.327-8,56c2.274,3.032,4.968,5.726,8,8v400.064c0,4.418,3.582,8,8,8h32c4.418,0,8-3.582,8-8v-153.6
			l88.664-14.4h17.096c31.549,0.029,62.809-6.006,92.08-17.776l25.712-10.224c6.61-2.664,13.673-4.022,20.8-4h99.648
			c39.765,0,72-32.236,72-72C480.034,160.302,447.799,128.066,408.034,128.066z M48.034,464.066h-16v-384.8
			c0.296,0.064,0.6,0,0.888,0.096c2.344,0.45,4.725,0.685,7.112,0.704c2.388-0.026,4.768-0.27,7.112-0.728
			c0.296-0.056,0.6,0,0.888-0.096V464.066z M40.036,64.066c-2.075,0-4.14-0.269-6.146-0.8c-2.051-0.542-4.022-1.348-5.864-2.4
			C16.539,54.254,12.587,39.581,19.2,28.093c4.289-7.451,12.237-12.039,20.835-12.027c13.255,0,24,10.744,24.001,23.999
			C64.036,53.32,53.291,64.066,40.036,64.066z M64.034,302.274V97.162l67.872,11.584c-13.096,18.608-19.872,55.08-19.872,91.32
			s6.744,72.528,19.768,91.2L64.034,302.274z M154.018,287.474c-0.595,0.375-1.281,0.579-1.984,0.592c-8.144,0-24-31.064-24-88
			c0-56.936,15.856-88,24-88c0.74,0.027,1.454,0.278,2.048,0.72c10.56,5.984,21.952,41.064,21.952,87.28
			S164.626,281.394,154.018,287.474z M408.034,256.066h-99.68c-9.155-0.027-18.228,1.717-26.72,5.136l-25.696,10.24
			c-25.914,10.418-53.507,16.034-81.432,16.576c0.112-0.192,0.208-0.44,0.32-0.64c1.357-2.33,2.583-4.734,3.672-7.2
			c0.216-0.48,0.416-1,0.624-1.496c0.987-2.32,1.912-4.749,2.776-7.288c0.2-0.576,0.408-1.136,0.6-1.728
			c0.949-2.917,1.824-5.955,2.624-9.112c0.184-0.696,0.344-1.408,0.512-2.112c0.688-2.832,1.317-5.733,1.888-8.704
			c0.112-0.56,0.232-1.104,0.336-1.664c0.613-3.381,1.147-6.824,1.6-10.328c0.112-0.8,0.216-1.648,0.32-2.48
			c0.416-3.259,0.773-6.539,1.072-9.84c0-0.376,0.08-0.752,0.112-1.136c0.304-3.6,0.528-7.2,0.696-10.824
			c0.04-0.864,0.072-1.72,0.104-2.584c0.176-3.616,0.272-7.24,0.272-10.816s-0.096-7.2-0.232-10.856
			c0-0.872-0.064-1.736-0.104-2.608c-0.168-3.608-0.392-7.2-0.696-10.824c0-0.392-0.08-0.8-0.112-1.176
			c-0.296-3.296-0.664-6.568-1.072-9.808c-0.104-0.84-0.208-1.664-0.32-2.496c-0.48-3.496-1.016-6.944-1.6-10.312
			c-0.104-0.584-0.224-1.144-0.336-1.72c-0.571-2.96-1.197-5.851-1.88-8.672c-0.168-0.704-0.328-1.416-0.504-2.104
			c-0.8-3.147-1.672-6.176-2.616-9.088c-0.192-0.608-0.408-1.176-0.608-1.76c-0.864-2.539-1.784-4.96-2.76-7.264
			c-0.208-0.488-0.4-1-0.608-1.472c-1.082-2.441-2.298-4.82-3.64-7.128c-0.12-0.208-0.216-0.464-0.344-0.664
			c27.898,0.554,55.463,6.173,81.352,16.584l25.6,10.216c8.516,3.433,17.618,5.183,26.8,5.152h99.68c30.928,0,56,25.072,56,56
			C464.034,230.994,438.962,256.066,408.034,256.066z"/>
	</g>
</g>
<g>
</g>
<g>
</g>
<g>
</g>
<g>
</g>
<g>
</g>
<g>
</g>
<g>
</g>
<g>
</g>
<g>
</g>
<g>
</g>
<g>
</g>
<g>
</g>
<g>
</g>
<g>
</g>
<g>
</g>
</svg>
