<?xml version="1.0" encoding="iso-8859-1"?>
<!-- Generator: Adobe Illustrator 19.0.0, SVG Export Plug-In . SVG Version: 6.00 Build 0)  -->
<svg version="1.1" id="Capa_1" xmlns="http://www.w3.org/2000/svg" xmlns:xlink="http://www.w3.org/1999/xlink" x="0px" y="0px"
	 viewBox="0 0 480.042 480.042" style="enable-background:new 0 0 480.042 480.042;" xml:space="preserve">
<g>
	<g>
		<path d="M477.085,176.333c-13.122-55.919-69.09-90.612-125.009-77.491C349.327,43.461,303.611-0.022,248.163,0
			c-57.438,0.023-103.981,46.604-103.958,104.042c0,0.536,0,1.072,0,1.6c-5.265-1.074-10.626-1.61-16-1.6
			c-36.146,0.078-67.776,24.318-77.248,59.2c-30.192,9.315-50.783,37.225-50.774,68.822c0.012,39.765,32.257,71.99,72.022,71.978
			h304c2.968,0,5.848-0.088,8.672-0.344c4.956-0.432,9.875-1.22,14.718-2.357C455.514,288.22,490.207,232.251,477.085,176.333z
			 M383.477,287.754c-2.4,0.224-4.8,0.288-7.272,0.288h-304c-26.013-0.002-48.6-17.916-54.525-43.245
			c-7.045-30.115,11.658-60.239,41.773-67.283c3.056-0.706,5.418-3.133,6.04-6.208c6.104-29.796,32.297-51.208,62.712-51.264
			c7.487-0.049,14.919,1.288,21.92,3.944c1.263,0.488,2.63,0.647,3.972,0.463c4.377-0.602,7.438-4.638,6.836-9.015
			c-0.503-3.776-0.746-7.583-0.728-11.392c0-48.601,39.399-88,88-88s88,39.399,88,88c0,1.72-0.072,3.44-0.152,5.168
			c-0.046,1.039,0.112,2.076,0.463,3.054c1.493,4.158,6.075,6.319,10.233,4.826c9.453-3.375,19.419-5.083,29.456-5.048
			c45.905-0.084,84.162,35.133,87.872,80.888C468.005,241.372,431.919,283.826,383.477,287.754z"/>
	</g>
</g>
<g>
	<g>
		<path d="M183.181,388.122c-0.632-0.969-1.458-1.796-2.427-2.427c-3.853-2.512-9.013-1.425-11.525,2.427
			c-4.184,7.448-25.024,45.312-25.024,59.92c0,17.673,14.327,32,32,32s32-14.327,32-32
			C208.205,433.434,187.405,395.57,183.181,388.122z M176.205,464.042c-8.837,0-16-7.163-16-16c3.491-13.715,8.876-26.876,16-39.104
			c7.124,12.228,12.509,25.389,16,39.104C192.205,456.879,185.041,464.042,176.205,464.042z"/>
	</g>
</g>
<g>
	<g>
		<path d="M311.181,388.122c-0.632-0.969-1.458-1.796-2.427-2.427c-3.853-2.512-9.013-1.425-11.525,2.427
			c-4.224,7.448-25.024,45.312-25.024,59.92c0,17.673,14.327,32,32,32c17.673,0,32-14.327,32-32
			C336.205,433.434,315.405,395.57,311.181,388.122z M304.205,464.042c-8.837,0-16-7.163-16-16c3.491-13.715,8.876-26.876,16-39.104
			c7.124,12.228,12.509,25.389,16,39.104C320.205,456.879,313.041,464.042,304.205,464.042z"/>
	</g>
</g>
<g>
	<g>
		<path d="M247.181,324.122c-0.632-0.969-1.458-1.796-2.427-2.427c-3.853-2.512-9.013-1.425-11.525,2.427
			c-4.184,7.448-25.024,45.312-25.024,59.92c0,17.673,14.327,32,32,32c17.673,0,32-14.327,32-32
			C272.205,369.434,251.405,331.57,247.181,324.122z M240.205,400.042c-8.837,0-16-7.163-16-16c3.491-13.715,8.876-26.876,16-39.104
			c7.124,12.228,12.509,25.389,16,39.104C256.205,392.879,249.041,400.042,240.205,400.042z"/>
	</g>
</g>
<g>
	<g>
		<path d="M119.181,324.122c-0.632-0.969-1.458-1.796-2.427-2.427c-3.853-2.512-9.013-1.425-11.525,2.427
			c-4.184,7.448-25.024,45.312-25.024,59.92c0,17.673,14.327,32,32,32s32-14.327,32-32
			C144.205,369.434,123.405,331.57,119.181,324.122z M112.205,400.042c-8.837,0-16-7.163-16-16c3.491-13.715,8.876-26.876,16-39.104
			c7.124,12.228,12.509,25.389,16,39.104C128.205,392.879,121.041,400.042,112.205,400.042z"/>
	</g>
</g>
<g>
	<g>
		<path d="M375.181,324.122c-0.632-0.969-1.458-1.796-2.427-2.427c-3.853-2.512-9.013-1.425-11.525,2.427
			c-4.224,7.448-25.024,45.312-25.024,59.92c0,17.673,14.327,32,32,32c17.673,0,32-14.327,32-32
			C400.205,369.434,379.405,331.57,375.181,324.122z M368.205,400.042c-8.837,0-16-7.163-16-16c3.491-13.715,8.876-26.876,16-39.104
			c7.124,12.228,12.509,25.389,16,39.104C384.205,392.879,377.041,400.042,368.205,400.042z"/>
	</g>
</g>
<g>
</g>
<g>
</g>
<g>
</g>
<g>
</g>
<g>
</g>
<g>
</g>
<g>
</g>
<g>
</g>
<g>
</g>
<g>
</g>
<g>
</g>
<g>
</g>
<g>
</g>
<g>
</g>
<g>
</g>
</svg>
