<?xml version="1.0" encoding="iso-8859-1"?>
<!-- Generator: Adobe Illustrator 19.0.0, SVG Export Plug-In . SVG Version: 6.00 Build 0)  -->
<svg version="1.1" id="Capa_1" xmlns="http://www.w3.org/2000/svg" xmlns:xlink="http://www.w3.org/1999/xlink" x="0px" y="0px"
	 viewBox="0 0 480.399 480.399" style="enable-background:new 0 0 480.399 480.399;" xml:space="preserve">
<g>
	<g>
		<path d="M478.153,466.841L320.065,308.753c68.762-75.009,63.697-191.559-11.312-260.32S117.195-15.264,48.433,59.745
			s-63.697,191.559,11.312,260.32c70.443,64.576,178.565,64.576,249.008,0l158.088,158.088c3.178,3.07,8.242,2.982,11.312-0.196
			C481.148,474.857,481.148,469.942,478.153,466.841z M184.497,352.497c-92.74-0.106-167.894-75.26-168-168
			c0-92.784,75.216-168,168-168s168,75.216,168,168S277.281,352.497,184.497,352.497z"/>
	</g>
</g>
<g>
</g>
<g>
</g>
<g>
</g>
<g>
</g>
<g>
</g>
<g>
</g>
<g>
</g>
<g>
</g>
<g>
</g>
<g>
</g>
<g>
</g>
<g>
</g>
<g>
</g>
<g>
</g>
<g>
</g>
</svg>
